<?xml version="1.0" encoding="UTF-8"?>
<svg width="700pt" height="700pt" version="1.1" viewBox="0 0 700 700" xmlns="http://www.w3.org/2000/svg" xmlns:xlink="http://www.w3.org/1999/xlink">
 <defs>
   <style>
  path{
   fill: #fff;
  }
  </style>
 </defs>
 <g>
  <path d="m569.52 85.68-22.961-24.078c-7.8398-7.8398-18.48-12.879-28.559-12.879-8.9609 0-17.359 3.3594-22.961 9.5195l-245.28 253.68-25.762 95.762c-1.1211 3.3594 0 6.7188 2.2383 9.5195 2.2383 2.2383 5.6016 2.8008 8.3984 2.2383l92.965-26.32 245.28-253.12c6.1602-6.1602 9.5195-14.559 9.5195-24.078 0-11.203-4.4766-21.844-12.879-30.242zm-297.92 303.52c0-10.641-8.9609-19.039-19.039-19.602l11.762-45.359 50.961 52.641zm55.438-25.199-49.281-50.961 187.04-193.2 49.281 51.52zm231.84-239.12-29.68 30.242-49.281-51.52 28.559-29.68c6.1602-6.1602 19.039-6.1602 25.762 1.1211l22.961 24.078c3.9219 3.9219 5.6016 8.9609 5.6016 14 0.55859 4.4805-1.1211 8.3984-3.9219 11.758z"/>
  <path d="m473.2 160.72-153.44 156.8"/>
  <path d="m475.44 162.96-153.44 156.8-2.2383-2.2422-2.2422-2.2383 153.44-156.8z"/>
  <path d="m589.12 236.88v210c0 54.32-38.641 73.922-71.68 73.922h-336c-33.043 0-71.68-22.402-71.68-86.801v-333.76c0-46.477 48.16-61.039 71.68-61.039h223.44c5.6016 0 10.641 5.0391 10.641 11.199 0 6.1602-4.4805 11.199-10.641 11.199l-221.76 0.003906c-7.8398 0-25.762 0-38.078 12.879-9.5195 8.9609-14 22.961-14 41.441v316.96c4.4805 45.359 30.238 66.078 53.199 66.078h331.52c19.039 0 53.199-17.922 53.199-54.32v-207.2c0-6.1602 4.4805-11.199 10.641-11.199 5.0391-0.003907 9.5195 4.4766 9.5195 10.637z"/>
 
 </g>
</svg>
