<?xml version="1.0" encoding="UTF-8"?>
<svg width="700pt" height="700pt" version="1.1" viewBox="0 0 700 700" xmlns="http://www.w3.org/2000/svg" xmlns:xlink="http://www.w3.org/1999/xlink">
 
 <g>
  <path d="m390.15 274.4 6.4414-0.61719c12.543-1.0078 25.09-2.0156 37.633-3.1367l-0.003906 0.003907c3-0.24219 5.9766-0.71094 8.9062-1.4023 3.4727-0.83984 4.2578-2.4062 3.6406-5.6016-0.95312-5.6016-1.9023-10.586-3.0234-15.848-3.1367-14.949-6.4414-29.398-9.7461-44.125-0.53125-3.6562-3.3594-6.5508-7-7.168-1.6992-0.32812-3.4219-0.51562-5.1523-0.55859l-21.336-1.0078-8.0625-0.50391v-10.922c0-1.625 0.39062-2.1836 2.0156-2.8008 8.5234-2.2852 15.426-8.5391 18.535-16.801 1.2695-4.1094 1.8008-8.4141 1.5664-12.711-0.14453-6.875-3.0312-13.41-8.0117-18.152-4.9844-4.7422-11.656-7.2969-18.531-7.1016-9.2695 0.066407-17.949 4.5625-23.352 12.094-3.0586 3.9961-4.9844 8.7383-5.5781 13.734-0.58984 4.9961 0.17578 10.062 2.2188 14.66 1.6094 4.2812 4.3672 8.0391 7.9727 10.855 3.6094 2.8164 7.9219 4.582 12.469 5.1016 0.44922 0 1.1758 0.50391 1.1758 0.83984 0 3.6953 0.44922 7.3906 0.61719 11.199h-1.6797l-18.984 0.67187-0.003906 0.003907c-5.25 0.37891-10.527 0.17188-15.734-0.61719-14.281-2.9688-28.672-5.1523-43.121-7.4492-4.6523-1.2695-9.5312-1.4766-14.281-0.61328-2.8008 0.78516-3.3594 1.0078-3.2461 3.9766 0 5.0977 0.39062 10.191 0.78516 15.289 0.28125 2.9688 1.0078 5.6016 1.5664 9.0703l-4.5938 2.6328 0.003906-0.003906c-13.938 7.4453-24.348 20.113-28.953 35.227-5.7344 16.523-4.3125 34.688 3.918 50.117 7.1055 12.738 18.492 22.539 32.145 27.664 13.113 5.8633 27.641 7.8086 41.832 5.6016 3.5859-0.55859 7.1133-1.3984 11.199-2.1836-5.6523 7.6758-10.852 15.68-15.566 23.969l0.33594 0.78516 33.207-2.6875c-0.61719 1.0078-0.95312 1.6797-1.3984 2.3516l-15.566 25.09-0.003906-0.003907c-1.6797 2.4453-1.6797 5.6758 0 8.1211 4.0312 6.3281 8.1758 12.656 12.152 19.098 2.6328 4.1445 5.0391 8.5117 7.6172 12.879-2.5742 2.0703-5.0391 3.9219-7.3906 5.6016-1.3438 1.1211-2.1289 2.5742-1.0078 4.1445 1.1211 1.5664 2.6328 0.95313 3.9766 0 2.6328-1.6797 5.2656-3.3047 7.7852-5.0977 5.207-3.6406 4.6484-3.6953 2.1289-8.1758-3.4727-6.2148-6.8867-12.543-10.527-18.762-2.4648-4.0898-5.3203-8.0078-7.8945-12.098h-0.007813c-0.35938-0.72266-0.35938-1.5703 0-2.2969 1.3984-2.7422 3.0234-5.6016 4.5352-8.0078 4.4414-7.6523 8.8867-15.309 13.328-22.961l0.003907 0.003906c0.47266-0.57422 1.1641-0.91797 1.9023-0.95312l35.113-1.0078h1.1758c-1.0625 1.793-1.9609 3.3594-2.9688 4.8164-4.1992 6.1602-8.3438 12.434-12.824 18.367-2.418 2.8086-2.7578 6.8516-0.83984 10.023 2.9688 5.6016 5.6016 11.648 8.9609 17.414 2.1289 3.9219 4.6484 7.6172 6.9453 11.199l-0.003906 0.003906c-1.1602 1.1562-2.2617 2.3711-3.3008 3.6406-1.3711 1.7148-2.5195 3.5938-3.418 5.5977-0.95312 2.1836 0.44922 3.5859 2.6875 2.9102v0.003906c1.375-0.39844 2.6406-1.1055 3.6953-2.0742 2.5742-2.2969 4.9297-4.8164 7.4492-7.168 1.1094-0.77344 1.3828-2.3008 0.61719-3.4141-4.7031-8.7344-9.2969-17.527-14.055-26.266-3.6406-6.5508-3.6953-6.4414 0.83984-12.488 5.6016-7.3906 11.199-14.895 16.801-22.398h-0.003906c0.41016-0.44531 0.96875-0.72266 1.5703-0.78516l17.641-1.2891 11.199-1.0078c-20.891-25.199-38.137-52.133-59.137-76.496zm14.391 51.129c4.7617-0.44922 9.5742-0.67188 14.336-1.2305 1.8398-0.42969 3.7148 0.57812 4.3672 2.3516l-73.805 7.9531c0.87109-0.73437 1.8516-1.3203 2.9102-1.7383 6.5508-1.3984 13.047-2.9688 19.656-3.8633 10.809-1.3984 21.672-2.4062 32.535-3.5273zm23.406-114.74h0.44922c2.0156 17.586 9.2969 34.047 11.199 51.688l-44.801 3.9766c11.203-18.48 22.254-37.055 33.156-55.723zm-52.023 9.1836c-4.9844 0.33594-10.023 0-15.008 0-2.3516 0-2.5195-1.625-3.4141-3.2461l61.992-3.4727 0.33594 0.55859c-0.78516 1.3438-1.5664 2.7422-2.4648 3.9766-0.35938 0.42578-0.89844 0.65625-1.457 0.61328-13.344-0.33594-26.699 0.16797-39.98 1.5117zm-22.68-17.695c2.7422 3.1367 5.6016 5.9922 8.7344 9.0156l9.8555-11.199 3.0781 3.7539c1.5664 1.793 3.2461 3.4727 4.7617 5.2656 1.5117 1.793 1.7344 0.95312 2.8008 0 2.9102-2.7422 5.9375-5.6016 9.1289-8.3438l7.3906 8.6797 10.137-8.5664 7.3359 8.1758 9.9688-6.9453 0.44922 0.50391-5.6016 8.9023h-6.4961l0.003907-0.003906c-14.969 0.035156-29.922 0.875-44.801 2.5195-3.8086 0.39062-7.6172 0.50391-11.199 0.89453v0.003907c-1.3008 0.17969-2.5625-0.53125-3.082-1.7383-2.1836-4.0312-4.4805-8.0078-6.832-12.152 1.5625-0.44922 3.2461 0.003907 4.3672 1.1758zm-3.3594 11.199-3.0781 3.2461-5.0977-5.6016v-0.55859zm-46.816-19.098c8.5117 1.7344 16.801 3.7539 25.48 5.6016 3.5859 0.72656 7.2227 1.2305 10.863 1.625 3.0312-0.18359 5.7891 1.7422 6.6641 4.6445 0.26953 0.71484 0.58594 1.4062 0.95312 2.0742-18.199-5.207-35.504-1.1758-52.809 3.9766-0.61719-6.3828-1.2305-12.711-1.9023-19.32 3.75 0.054688 7.2812 0.39063 10.75 1.0625zm33.098 15.566v0.003906c-0.55469 0.90234-1.0586 1.8398-1.5117 2.7969-0.16016 0.53125-0.54297 0.96484-1.0469 1.1914-0.50391 0.22656-1.0859 0.22266-1.5859-0.011719l-9.0703-3.2461v-0.72656zm-19.77 0.73047-0.72656 4.3125-9.2969-1.457v-0.72656zm-16.238 4.2578v8.1211l-17.527 1.3984c5.1602-4.2031 11.043-7.4258 17.359-9.5195zm-21.727 12.266 7.6719 8.0039-19.543 5.6016h-0.003906c2.6602-5.4727 6.6914-10.16 11.707-13.609zm-14.168 16.801v-0.003906c5.125 2.9922 9.5391 7.0625 12.934 11.93l-19.656 9.2969v-0.003906c1.2188-7.3359 3.4219-14.477 6.5547-21.223zm-5.207 42.223-0.89844-0.003906-1.5117-16.801h19.938zm8.6797 19.375h-0.003906c-3.4375-4.3008-6.0898-9.1719-7.8398-14.395l18.199-9.7422c-3.5273 7.8398-6.9961 15.957-10.527 24.137zm18.594 16.016h-0.003906c-5.6094-2.7383-10.629-6.543-14.785-11.203l17.754-10.754zm5.6016 3.3047 12.77-11.199 3.0156 16.684zm22.398 6.3281 10.473-9.7422 2.7969 9.7383zm19.766-0.84375v-0.44922l5.6016-7.0547 1.9609 5.6016zm-19.656-19.375c-7.3164-3.0938-13.73-7.9883-18.648-14.223-7.7188-8.793-12.426-19.82-13.441-31.473-1.0391-7.2422 0.035157-14.633 3.0938-21.277 3.0586-6.6484 7.9766-12.27 14.156-16.188 7.8594-5.1914 16.844-8.4336 26.207-9.4648 6.668-0.92578 13.461-0.35156 19.879 1.6797 9.6328 3.1367 9.8555 3.0234 14.391 12.039 5.9375 11.648 11.535 23.465 17.246 35.223 0 0.39062 0 0.78516 0.44922 1.3438-3.4141 0.44922-6.6641 0.89453-9.9688 1.2305-5.207 0.50391-10.414 1.0078-15.625 1.3438l0.003906 0.007813c-0.85938 0.046875-1.6953-0.28125-2.2969-0.89844-3.5273-5.2656-6.9453-10.586-10.305-15.961h0.003907c-0.25391-0.53125-0.25391-1.1484 0-1.6797 1.9492-5.0625-0.007813-10.797-4.6484-13.605-0.58203-0.31641-1.1797-0.59375-1.793-0.83984-2.6484-1.4922-5.9141-1.3398-8.418 0.38672-2.5 1.7266-3.7969 4.7266-3.3438 7.7305 0.23828 2.2773 0.96484 4.4727 2.1289 6.4414 2.0938 3.4922 6.375 5 10.191 3.5859 1.0078 0 2.0156-0.72656 3.2461-1.1758l10.305 16.352h0.003906c-1.1992 0.29688-2.3789 0.67188-3.5312 1.1172-1.5273 0.41016-2.4922 1.9141-2.2383 3.4727 0 1.7344 1.5664 2.2383 2.9688 2.3516 1.3984 0.11328 4.4258 0 6.6641 0 0.98828 0.10547 1.918 0.53906 2.6328 1.2344 1.3984 1.3984 2.5742 3.0781 3.9219 4.5938l-0.003906-0.003906c0.69141 0.65625 1.4219 1.2734 2.1836 1.8477 0-3.8086-2.5195-5.6016-4.0312-8.5664l13.16-1.6797c3.5859-0.44922 7.168-0.72656 10.754-1.0078h-0.003906c0.67188-0.082032 1.3477-0.082032 2.0195 0-0.050781 0.67187-0.20312 1.332-0.44922 1.9609l-15.961 25.648c-1.8477 2.9102-3.7539 5.6016-5.6016 8.625v-0.003906c-0.46094 0.69922-1.1562 1.2148-1.957 1.457-14.273 3.8945-29.391 3.3477-43.344-1.5703zm22.398 42.727v-0.55859l7.7266-11.199 6.1602 7.4492 7.168-11.48 7 9.9102c2.4648-3.2461 4.8164-6.1055 6.9453-9.1289 2.1289-3.0234 1.9609-2.6875 4.2578-0.39063 2.2969 2.2969 4.1992 4.3672 6.3281 6.4961l2.4062 2.2383c1.7344-2.1289 3.3594-4.0898 4.8711-6.1602 1.5117-2.0703 2.8555-4.1445 4.4805-6.5508 1.9023 2.2969 3.6406 4.5352 5.6016 6.6641 1.9609 2.1289 2.4062 2.6875 3.6406 3.9766 1.2305 1.2891 1.8477 0.89453 2.7422-0.28125 2.6875-3.5859 5.6016-7.0547 8.3438-10.641l8.2891 10.418 7.168-9.0156c3.1914 4.0898 6.1602 7.8945 9.2383 11.93-34.215 2.1836-68.375 1.5117-102.2 6.3828z"/>
  <path d="m393.62 343.79c0.31641 0.92578 1.0703 1.6406 2.0156 1.9023 0.67188 0 1.5117-0.95312 2.8555-1.9023-1.2891-1.0625-2.0156-2.0156-2.8555-2.1289-0.58203-0.11328-1.1836 0.078125-1.5938 0.50781-0.41016 0.43359-0.56641 1.043-0.42188 1.6211z"/>
  <path d="m372.79 344.57c0 0.67188 1.0625 1.3438 1.6797 2.0156 0.78516-0.72656 1.793-1.2891 2.1289-2.1289 0.33594-0.83984-0.89453-1.3438-1.9023-2.6875-0.95703 1.3477-1.9062 2.0742-1.9062 2.8008z"/>
  <path d="m358.18 344.4c-0.28125 0-1.2305 0.95312-2.4648 1.9609 1.2891 1.0078 2.0156 1.9609 2.7422 1.9609s1.8477-1.3438 1.7344-1.6797h0.003906c-0.39844-0.95312-1.1094-1.7422-2.0156-2.2422z"/>
  <path d="m413.39 342.33c0.28906 0.90625 0.9375 1.6562 1.793 2.0703 0.44922 0 1.3438-0.78516 2.6328-1.5664-1.2305-1.0078-1.9023-1.9023-2.7422-2.1289-0.84375-0.22266-1.7383 1.2344-1.6836 1.625z"/>
  <path d="m431.14 341.1c-0.89453 1.1211-1.8477 1.8477-1.793 2.4648 0.054688 0.61719 1.1211 1.1211 1.7344 1.7344 0.55859-0.67188 1.3984-1.2305 1.5664-1.9609 0.17188-0.72656-0.78125-1.1758-1.5078-2.2383z"/>
  <path d="m342.72 348.88c0 0.44922 0.61719 1.1758 1.2891 2.2383 0.78516-0.95313 1.5117-1.5117 1.5117-2.0703s-0.72656-1.1211-1.1211-1.6797c-0.61328 0.50391-1.5117 0.89844-1.6797 1.5117z"/>
  <path d="m374.14 208.88c0.14062-0.60156-0.007813-1.2344-0.40625-1.707-0.39453-0.47656-0.99219-0.73438-1.6094-0.69922-0.72656 0-1.457 0.95312-2.7422 1.8477 1.2891 1.0625 2.0156 2.0703 2.9102 2.2383 0.89453 0.16797 1.6797-0.94922 1.8477-1.6797z"/>
  <path d="m391.33 209.21c0.55859 0 1.3438-1.0078 2.5195-1.9609-1.2305-0.95312-2.0703-2.0703-2.7422-1.9609v0.003906c-0.91797 0.26562-1.6367 0.98438-1.9062 1.9023 0 0.83984 1.3438 1.8477 2.1289 2.0156z"/>
  <path d="m408.69 208.43c0.55859 0 1.3984-0.72656 2.5742-1.3984-1.1211-0.95312-1.7344-1.9023-2.3516-1.9609-0.61719-0.054688-1.7344 1.0078-1.7344 1.5117 0.14062 0.83984 0.71484 1.5391 1.5117 1.8477z"/>
 
 </g>
</svg>
