<?xml version="1.0" encoding="UTF-8"?>
<svg width="700pt" height="700pt" version="1.1" viewBox="0 0 700 700" xmlns="http://www.w3.org/2000/svg" xmlns:xlink="http://www.w3.org/1999/xlink">

 <g>
  <path d="m625.7 95.754c0 0.74609-0.20312 1.4453-0.54688 2.043-0.62891 1.4688-2.082 2.4961-3.7812 2.4961h-36.586c-4.2266 0-6.8945 0.29297-8.5508 1.4844-1.7539 1.2539-3.1094 3.8867-4.7422 8.5898-8.5742 24.586 0.19531 63.453 9.3242 103.93 6.7578 29.953 13.707 60.77 14.164 88.055 0.011719 0.14453 0.011719 0.29688 0.003906 0.44141 0.09375 6.7773-0.21094 13.328-1.0312 19.594-8.3906 64.488-40.297 121.59-86.844 162.41-45.977 40.324-106.21 64.77-172.15 64.77-69.238 0-132.19-26.945-178.92-70.93-47.008-44.234-77.594-105.7-81.652-174.32-0.42578-7.168 0.58203-12.039 3.7539-15.398 3.1641-3.3555 7.9805-4.6406 15.164-4.6406l195.51 0.003906v-0.011719c2.0273 0 4.0938-0.09375 5.9375-0.5 1.6016-0.34766 3.0586-0.92969 4.1875-1.8984 1.0469-0.89453 1.9141-1.9531 2.543-3.1094 0.72266-1.332 1.1094-2.7812 1.0234-4.207-0.074219-1.3398-0.59375-2.7031-1.6875-3.9805-0.82422-0.95703-1.9609-1.875-3.4492-2.7031-32.52-13.262-61.77-32.938-86.152-57.488-46.469-46.801-75.254-111.28-75.254-182.68h-0.015625c0-0.35938 0.011719-0.46094 0.027344-2.4297 0.015625-2.2461 1.8438-4.0586 4.0938-4.0586l212.14-0.44922v-0.015625c6.668 0 14.312 0.63672 21.609 2.4023 6.0547 1.4688 11.855 3.7188 16.684 7.043 25.484 17.539 47.695 39.492 65.535 64.746-0.51562-6.5625-0.09375-13.195 1.4844-19.617 4.6211-18.816 15.496-35.184 30.297-46.777 14.492-11.352 32.738-18.117 52.551-18.117 23.559 0 44.891 9.5469 60.328 24.992 15.438 15.438 24.992 36.766 24.992 60.328zm-448.91 231c4.5312 0 8.6289 1.8359 11.598 4.8047 2.9727 2.9688 4.8086 7.0742 4.8086 11.602 0 4.5312-1.8359 8.6289-4.8086 11.602-2.9688 2.9688-7.0664 4.8047-11.598 4.8047s-8.6367-1.8359-11.602-4.8047c-2.9688-2.9727-4.8047-7.0742-4.8047-11.602 0-4.5312 1.8359-8.6367 4.8047-11.602 2.9688-2.9688 7.0742-4.8047 11.602-4.8047zm5.7891 10.613c-1.4766-1.4766-3.5273-2.3984-5.7891-2.3984-2.2617 0-4.3125 0.91797-5.7969 2.3984-1.4844 1.4844-2.3984 3.5352-2.3984 5.7969 0 2.2617 0.91406 4.3125 2.3984 5.7891 1.4844 1.4844 3.5352 2.4023 5.7969 2.4023 2.2617 0 4.3125-0.91797 5.7891-2.4023 1.4844-1.4766 2.4023-3.5273 2.4023-5.7891 0-2.2617-0.91797-4.3125-2.4023-5.7969zm336.21-28.422c4.5312 0 8.6289 1.8359 11.598 4.8086 2.9727 2.9688 4.8086 7.0664 4.8086 11.598s-1.8359 8.6367-4.8086 11.602c-2.9688 2.9688-7.0664 4.8047-11.598 4.8047s-8.6367-1.8359-11.602-4.8047c-2.9688-2.9688-4.8047-7.0742-4.8047-11.602 0-4.5312 1.8359-8.6289 4.8047-11.598 2.9688-2.9727 7.0742-4.8086 11.602-4.8086zm5.7891 10.617c-1.4844-1.4844-3.5273-2.3984-5.7891-2.3984-2.2617 0-4.3125 0.91406-5.7969 2.3984-1.4766 1.4844-2.3984 3.5273-2.3984 5.7891 0 2.2617 0.91797 4.3125 2.3984 5.7969 1.4844 1.4844 3.5352 2.3984 5.7969 2.3984 2.2617 0 4.3047-0.91406 5.7891-2.3984 1.4844-1.4844 2.3984-3.5352 2.3984-5.7969 0-2.2617-0.91406-4.3047-2.3984-5.7891zm-91.348 108.09c5.1523 0 9.8164 2.0898 13.195 5.4648 3.375 3.375 5.4648 8.0352 5.4648 13.195 0 5.1445-2.0898 9.8125-5.4648 13.188s-8.043 5.4648-13.195 5.4648c-5.1523 0-9.8164-2.0898-13.188-5.4648-3.375-3.375-5.4648-8.043-5.4648-13.188 0-5.1523 2.0898-9.8164 5.4648-13.195 3.3711-3.375 8.0352-5.4648 13.188-5.4648zm7.3867 11.273c-1.8945-1.8867-4.5039-3.0586-7.3867-3.0586-2.8828 0-5.4922 1.1719-7.3789 3.0586-1.8945 1.8945-3.0586 4.5039-3.0586 7.3867 0 2.8789 1.1641 5.4922 3.0586 7.3789 1.8867 1.8867 4.4961 3.0586 7.3789 3.0586 2.8828 0 5.4922-1.1719 7.3867-3.0586 1.8867-1.8867 3.0508-4.5039 3.0508-7.3789 0-2.8828-1.1641-5.4922-3.0508-7.3867zm-166.12-4.543c5.1523 0 9.8164 2.0898 13.195 5.4648 3.375 3.375 5.4648 8.043 5.4648 13.188 0 5.1523-2.0898 9.8164-5.4648 13.195-3.375 3.375-8.043 5.4648-13.195 5.4648s-9.8164-2.0898-13.195-5.4648c-3.375-3.375-5.4609-8.043-5.4609-13.195 0-5.1445 2.082-9.8125 5.4609-13.188 3.375-3.375 8.043-5.4648 13.195-5.4648zm7.3867 11.273c-1.8945-1.8867-4.5039-3.0586-7.3867-3.0586s-5.4922 1.1719-7.3789 3.0586c-1.8945 1.8867-3.0586 4.5039-3.0586 7.3789 0 2.8828 1.1641 5.5 3.0586 7.3867 1.8867 1.8867 4.4961 3.0586 7.3789 3.0586s5.4922-1.1719 7.3867-3.0586c1.8867-1.8867 3.0586-4.5039 3.0586-7.3867 0-2.8789-1.1719-5.4922-3.0586-7.3789zm-86.48-41.137c2.2617 0.17188 3.9492 2.1523 3.7695 4.4141-0.17188 2.2578-2.1523 3.9492-4.4141 3.7695-1.0703-0.085938-2.0781 0.29297-2.8438 0.96875-0.80078 0.71094-1.3438 1.7578-1.4375 2.9727-0.28125 3.5156 0.82812 6.8047 2.8516 9.2695 1.9766 2.418 4.8398 4.043 8.1133 4.3047 3.2891 0.26172 6.3828-0.89062 8.7188-2.9609 2.375-2.1055 3.9883-5.168 4.2656-8.6914 0.46484-5.8242-1.3789-11.266-4.7305-15.359-3.3164-4.0469-8.1133-6.7695-13.602-7.207-5.5117-0.44141-10.684 1.4844-14.594 4.9492-3.9531 3.5039-6.6289 8.5859-7.0938 14.414-0.33203 4.1484 0.16797 8.1406 1.3477 11.805 1.2305 3.8086 3.1914 7.2812 5.7305 10.219 0.41406 0.48047 0.69922 1.0234 0.85547 1.5977 4.2383 5.0078 8.7148 9.8125 13.406 14.391 37.648 36.805 89.176 59.488 146 59.488 3.5625 0 7.1016-0.09375 10.625-0.26953-2.9844-2-5.6602-4.4414-7.9414-7.2227-5.9805-7.2969-9.2695-16.973-8.4453-27.301 0.63672-8.0078 4.3555-15.023 9.8555-19.898 5.5312-4.9102 12.859-7.6328 20.66-7.0117 7.8242 0.62891 14.629 4.4727 19.312 10.191 4.6484 5.6719 7.2031 13.188 6.5625 21.207-0.46094 5.6992-3.1094 10.703-7.0273 14.18-3.9609 3.5117-9.1992 5.4609-14.789 5.0117-5.6016-0.44141-10.473-3.1992-13.828-7.293-3.3164-4.043-5.1367-9.3984-4.6758-15.109 0.26953-3.3945 1.8555-6.3828 4.1992-8.4609 2.3867-2.1172 5.543-3.2891 8.9102-3.0195 2.2617 0.17188 3.9492 2.1523 3.7734 4.4141-0.17969 2.2578-2.1562 3.9492-4.4141 3.7695-1.0742-0.085937-2.082 0.29297-2.8438 0.96875-0.80469 0.71094-1.3477 1.7578-1.4453 2.9727-0.28125 3.5156 0.82812 6.7969 2.8516 9.2695 1.9805 2.418 4.8438 4.043 8.1133 4.3047 3.293 0.26172 6.3828-0.89062 8.7188-2.9609 2.3789-2.1055 3.9883-5.168 4.2656-8.6914 0.46484-5.8242-1.3789-11.273-4.7305-15.367-3.3164-4.043-8.1094-6.7656-13.602-7.207-5.5117-0.4375-10.68 1.4883-14.594 4.957-3.9531 3.5039-6.6289 8.5859-7.0938 14.414-0.64453 8.1328 1.9336 15.734 6.6211 21.461 4.6484 5.6719 11.375 9.4922 19.086 10.102 1.5195 0.125 3.0195 0.11719 4.5039-0.011719 0.39062-0.035156 0.78516-0.074218 1.1641-0.125 0.73438-0.11719 1.4688-0.24219 2.1992-0.37109 0.34766-0.074219 0.69531-0.15625 1.0312-0.24219 0.34766-0.089843 0.69531-0.12891 1.0352-0.12891 35.648-6.5625 68.129-22.172 94.965-44.363 12.078-9.9922 23.023-21.32 32.594-33.75-3.1992 0.95703-6.5781 1.4688-10.07 1.4688-10.059 0-19.164-4.2344-25.75-11.082-6.5508-6.8086-10.602-16.195-10.602-26.543 0-8.0352 3.1484-15.328 8.2383-20.621 5.1289-5.332 12.219-8.6289 20.055-8.6289 7.8281 0 14.918 3.2969 20.047 8.6289 5.0898 5.293 8.2383 12.582 8.2383 20.621 0 5.7188-2.2461 10.914-5.8789 14.688-3.668 3.8203-8.7422 6.1758-14.348 6.1758s-10.68-2.3594-14.352-6.1758c-3.6289-3.7734-5.875-8.9727-5.875-14.688 0-3.4102 1.3438-6.5078 3.5117-8.7656 2.2188-2.3008 5.2734-3.7227 8.6562-3.7227 2.2695 0 4.1055 1.8359 4.1055 4.1055s-1.8359 4.1094-4.1055 4.1094c-1.0703 0-2.043 0.45312-2.75 1.1875-0.74609 0.77344-1.2031 1.8633-1.2031 3.0859 0 3.5352 1.3594 6.7188 3.5625 9.0117 2.168 2.25 5.1523 3.6406 8.4492 3.6406 3.293 0 6.2773-1.3906 8.4453-3.6406 2.1992-2.2891 3.5664-5.4766 3.5664-9.0117 0-5.8516-2.2695-11.133-5.9297-14.934-3.625-3.7695-8.6172-6.0977-14.141-6.0977-5.5273 0-10.523 2.3281-14.145 6.0977-3.6641 3.8008-5.9258 9.082-5.9258 14.934 0 8.1641 3.1641 15.535 8.2812 20.859 5.0859 5.2812 12.098 8.5508 19.848 8.5508 5.0273 0 9.7383-1.3711 13.805-3.7734 4.2656-2.5156 7.8359-6.1445 10.336-10.5 0.19531-0.33594 0.42969-0.63672 0.69531-0.89453 11.801-20.156 20.324-42.461 24.824-66.18 0.023437-0.125 0.074219-0.76172 0.13281-1.6367 0.73437-9.7031 3.2266-42.777 39.586-43.125-1.0195-25.465-7.5195-54.281-13.848-82.332-9.3906-41.637-18.406-81.621-9.0703-108.41 2.2188-6.3633 4.375-10.148 7.6992-12.543 3.4219-2.457 7.4141-3.0508 13.332-3.0508h32.609c-0.92969-19.836-9.3516-37.703-22.496-50.848-13.957-13.957-33.23-22.586-54.523-22.586-17.938 0-34.43 6.1094-47.512 16.352-13.371 10.473-23.195 25.266-27.379 42.285-1.5508 6.3047-1.793 12.918-1.0195 19.473 0.85156 7.1406 2.9023 14.168 5.7852 20.637 16.297 28.914 27.25 61.227 31.512 95.598 1.3398 10.773 2.0547 21.398 1.3477 32.148-0.69922 10.809-2.8398 21.668-7.207 32.805-0.46875 1.2773-1.5664 2.2891-2.9961 2.5938-11.285 2.4375-25.855 4.0156-41.008 5.0078-19.801 1.2891-40.746 1.5625-56.582 1.4062-0.10547 0.003906-0.21094 0.011719-0.32031 0.011719-0.33984 0-0.45312-0.011719-2.4062-0.027344-28.672-0.26172-56.262-5.1953-82.027-14.09 0.0625 0.42188 0.10156 0.84375 0.12891 1.2695 0.16797 2.9844-0.59375 5.9297-2.0234 8.5664-1.1094 2.0391-2.6211 3.8906-4.4062 5.4219-2.2969 1.9648-4.9727 3.0781-7.7773 3.6914-2.5586 0.55859-5.1758 0.6875-7.6719 0.6875v-0.011719l-156.34-0.011718c0.066407 2.9414 0.20703 7.918 0.30859 11.598 0.066406 2.2734 0.11719 4.0547 0.12891 4.7148 0.89453 39.867 12.965 76.977 33.191 108.33 0.015625-0.78906 0.054687-1.5859 0.11719-2.3789 0.63672-8.0117 4.3555-15.035 9.8516-19.902 5.5391-4.9062 12.863-7.6328 20.664-7.0117 7.8164 0.62109 14.629 4.4727 19.312 10.191 4.6406 5.6719 7.2031 13.188 6.5625 21.203-0.46094 5.707-3.1094 10.707-7.0352 14.184-3.9609 3.5117-9.1992 5.4609-14.785 5.0117-5.6016-0.44141-10.477-3.1992-13.828-7.293-3.3164-4.043-5.1367-9.3984-4.6797-15.109 0.27344-3.3984 1.8594-6.3789 4.207-8.4609 2.3867-2.1172 5.543-3.2891 8.9102-3.0195zm391.4-97.875c-28.895 0.49219-30.941 27.562-31.539 35.52-0.078125 1.0859-0.14062 1.8828-0.26172 2.5312-9.6094 50.664-36.812 95.082-75.008 126.67-37.555 31.059-85.73 49.719-138.25 49.719-59.039 0-112.58-23.574-151.71-61.828-39.223-38.344-63.98-91.43-65.297-150.31-0.003906-0.35156-0.0625-2.2383-0.12891-4.6484-0.10547-3.8359-0.25391-8.9531-0.32422-11.828h-30.98c-4.8203 0-7.7773 0.57812-9.1992 2.0781-1.418 1.5078-1.8203 4.4922-1.5352 9.3008 3.9375 66.449 33.562 125.98 79.09 168.83 45.254 42.59 106.23 68.684 173.3 68.684 63.891 0 122.24-23.672 166.76-62.715 45.086-39.543 75.992-94.848 84.125-157.31 0.60938-4.7148 0.91797-9.6211 0.96875-14.688zm-110.38-95.375c2.2578 0 4.0938 1.832 4.0938 4.0938 0 2.2578-1.8359 4.0898-4.0938 4.0898l-212.15 0.45312c-2.2578 0-4.0938-1.832-4.0938-4.0938 0-2.2578 1.8359-4.0898 4.0938-4.0898zm-23.672-37.781c2.2617 0 4.0938 1.832 4.0938 4.0938 0 2.2578-1.832 4.0898-4.0938 4.0898l-212.14 0.45312c-2.2617 0-4.0938-1.832-4.0938-4.0938 0-2.2578 1.832-4.0898 4.0938-4.0898zm-23.664-37.781c2.2578 0 4.0898 1.832 4.0898 4.0938s-1.832 4.0938-4.0898 4.0938l-212.15 0.44922c-2.2578 0-4.0898-1.832-4.0898-4.0938 0-2.2578 1.832-4.0898 4.0898-4.0898zm-23.672-37.781c2.2617 0 4.0938 1.832 4.0938 4.0938 0 2.2578-1.832 4.0938-4.0938 4.0938l-212.14 0.44922c-2.2617 0-4.0938-1.832-4.0938-4.0938 0-2.2578 1.832-4.0898 4.0938-4.0898zm-23.664-37.781c2.2578 0 4.0898 1.832 4.0898 4.0938 0 2.2578-1.832 4.0938-4.0898 4.0938l-212.15 0.44922c-2.2617 0-4.0938-1.832-4.0938-4.0938 0-2.2578 1.832-4.0938 4.0938-4.0938zm150.53-11.234c2.2695 0 4.1094 1.8359 4.1094 4.1055 0 2.2734-1.8438 4.1094-4.1094 4.1094-0.83984 0-1.5977 0.35938-2.1523 0.93359-0.59375 0.60937-0.95703 1.4844-0.95703 2.4648 0 3.0508 1.1719 5.8008 3.0703 7.7773 1.8633 1.9336 4.4297 3.1289 7.2617 3.1289 2.8281 0 5.3984-1.1992 7.2578-3.1289 1.8984-1.9766 3.0742-4.7266 3.0742-7.7773 0-5.125-1.9883-9.75-5.1914-13.082-3.1641-3.293-7.5391-5.332-12.363-5.332-4.8281 0-9.1953 2.0391-12.363 5.332-3.2031 3.332-5.1875 7.957-5.1875 13.082 0 7.2031 2.7891 13.703 7.3008 18.395 4.4727 4.6484 10.652 7.5273 17.473 7.5273 6.8164 0 12.992-2.8789 17.465-7.5273 4.5117-4.6914 7.3008-11.195 7.3008-18.395 0-2.2695 1.8438-4.1055 4.1094-4.1055 2.2695 0 4.1055 1.8359 4.1055 4.1055 0 9.3867-3.6719 17.898-9.6133 24.074-5.9766 6.2148-14.242 10.062-23.367 10.062-9.1328 0-17.398-3.8477-23.375-10.062-5.9414-6.1758-9.6133-14.688-9.6133-24.074 0-7.3086 2.8672-13.949 7.5-18.766 4.6719-4.8555 11.133-7.8633 18.266-7.8633 7.1406 0 13.598 3.0078 18.273 7.8633 4.6328 4.8164 7.5 11.457 7.5 18.766 0 5.2422-2.0625 10-5.3867 13.457-3.3672 3.5-8.0195 5.668-13.16 5.668-5.1445 0-9.8008-2.168-13.164-5.668-3.3281-3.457-5.3867-8.2148-5.3867-13.457 0-3.1641 1.25-6.0469 3.2695-8.1484 2.0625-2.1406 4.9102-3.4648 8.0586-3.4648zm-388.12-19.512c0.45313 68.465 28.234 130.27 72.867 175.22 45.008 45.328 107.13 73.516 175.63 74.145 0.37109 0 0.42188-0.003906 2.3477-0.003906 0.13281 0 0.26953 0.003906 0.40234 0.015625 15.574 0.15625 36.254-0.11719 55.984-1.4062 13.809-0.90234 27.074-2.2969 37.645-4.3906 3.5273-9.5977 5.293-18.988 5.9023-28.34 0.66016-10.121-0.035156-20.273-1.3164-30.637-4.4961-36.227-16.645-70.066-34.77-99.855-18.625-30.605-43.559-56.941-72.992-77.203-3.9258-2.7031-8.7969-4.5742-13.957-5.8203-6.5195-1.5781-13.508-2.1523-19.684-2.1523v-0.015625l-208.06 0.44141z"/>
 
 </g>
</svg>
