<?xml version="1.0" encoding="UTF-8"?>
<svg width="700pt" height="700pt" version="1.1" viewBox="0 0 700 700" xmlns="http://www.w3.org/2000/svg" xmlns:xlink="http://www.w3.org/1999/xlink">
 <defs>
   <style>
  path{
   fill:#fff;
  }
  </style>
 </defs>
 <g>
  <path d="m184.18 364.24h165.15v-158.89h-130.96c-18.789 0-34.18 15.395-34.18 34.18v124.71zm177.32 0h165.15v-124.71c0-18.789-15.398-34.18-34.184-34.18h-130.97zm165.15 10.461h-165.15v173.12h130.97c18.789 0 34.184-15.398 34.184-34.184zm-177.32 0h-165.15v138.94c0 18.789 15.395 34.184 34.18 34.184h130.97v-173.12zm-7.2422-181.53c-0.3125-33.328-10.07-76.891-29.168-104.84-19.625-28.715-42.562-33.543-60.789-31.238-18.023 2.2773-31.402 12.426-37.367 29.18-6.7812 19.031-1.1953 38.375 19.445 58.676 25.523 25.109 47.73 19.332 81.09 48.215h26.789zm150.39 366.83h-274.11c-25.512 0-46.359-20.852-46.359-46.359l-0.003906-274.11c0-25.512 20.852-46.355 46.359-46.355h64.82c-30.332-10.145-60.195-13.516-91.762-44.562-32.176-31.648-36.918-63.785-26.168-93.965 9.7852-27.469 33.25-49.23 62.699-52.953 29.254-3.6992 61.762 9.2773 91.602 52.934 14.555 21.297 35.883 82.559 29.992 138.55h10.816c-3.4883-46.477 13.945-96.039 25.965-113.63 25.438-37.219 53.148-48.277 78.086-45.125 25.105 3.1719 45.109 21.723 53.449 45.141 9.1641 25.723 5.1211 53.113-22.305 80.098-21.836 21.477-42.715 27.418-63.625 33.516h60.539c25.512 0 46.355 20.848 46.355 46.355v274.11c0.007812 25.512-20.84 46.363-46.348 46.363zm-125.25-366.83h28.199c25.465-19.617 43.324-16.625 63.66-36.629 17.594-17.305 22.359-33.793 16.578-50.016-5.0859-14.285-16.492-22.934-31.855-24.875-15.535-1.9648-35.094 2.1523-51.82 26.629-15.441 22.59-23.715 57.152-24.762 84.891z" fill-rule="evenodd"/>
 
 </g>
</svg>
