<?xml version="1.0" encoding="UTF-8"?>
<svg width="700pt" height="700pt" class="wsvg" version="1.1" viewBox="0 0 700 700" xmlns="http://www.w3.org/2000/svg" xmlns:xlink="http://www.w3.org/1999/xlink">
 
 <g>
  <path d="m422.8 392c9.9688-11.703 20.441-23.016 29.961-35.055 8.2891-10.473 8.3438-6.5508 1.8477-18.93-7.4492-14.281-16.016-28-23.574-42.223-8.2344-15.793-15.906-31.863-23.746-47.715-0.30859-0.78906-0.30859-1.668 0-2.4609 2.9102-7.4492 5.6016-14.84 8.8477-22.398 10.492-24.602 21.02-49.168 31.586-73.695l-0.003906-0.003907c0.68359-1.4922 1.207-3.0469 1.5703-4.6484 0.61719-3.0234 0-4.0312-3.1367-3.9219-6.9453 0.28125-13.887 0.83984-20.777 1.2305l-15.734 0.67187c-1.5664-6.4414-1.3984-6.2734 3.3594-9.6328v0.003906c3.5391-1.9609 6.4609-4.8711 8.4414-8.4023 1.9766-3.5312 2.9336-7.543 2.7578-11.59-0.44922-5.1719-1.3867-10.289-2.8008-15.285-0.80078-2.5117-2.2656-4.7656-4.2344-6.5156-1.9727-1.7539-4.375-2.9453-6.9648-3.4531-6.2148-1.7734-12.855-1.3594-18.805 1.168-5.9492 2.5234-10.855 7.0156-13.898 12.719-1.0977 2.2969-1.7109 4.793-1.793 7.3359-0.007813 3.2773 0.17969 6.5469 0.5625 9.8008-16.801 8.3438-33.039 16.801-49.559 24.977-15.344 7.6172-30.801 15.008-46.145 22.398h-0.003906c-1.4492 1.0586-3.4414 0.94141-4.7578-0.27734-4.8164-3.5234-10.543-5.5938-16.496-5.9609-5.957-0.36719-11.891 0.98438-17.105 3.8867-0.55859 0.33594-1.2891 1.0078-1.2891 1.5117-0.29688 2.2656-0.16406 4.5625 0.39453 6.7773 3.5664 10.797 8.8828 20.938 15.734 30.016 2.7852 2.8711 5.9297 5.375 9.3516 7.4492 0.95312 0.47656 2.0742 0.47656 3.0234 0 5.1211-3.9062 9.6289-8.5469 13.387-13.777 2.707-3.7578 3.9258-8.3867 3.4141-12.992 0.023437-1.0898 0.48828-2.1211 1.2891-2.8555 3.9766-2.8008 8.0625-5.6016 12.039-8.2305 0.50781-0.44531 1.1797-0.65625 1.8516-0.58203 0.67188 0.074218 1.2773 0.42578 1.6758 0.97266 3.6406 3.3594 7.2812 6.7188 11.199 9.8008 3.9219 3.0781 5.6016 3.1367 10.078 0 2.7422-1.8477 5.6016-3.8086 8.2891-5.8789l1.625 3.6406c2.3516 5.2656 4.5938 10.586 7 15.848 1.3438 2.8008 2.5195 3.4727 5.1523 1.793v-0.003906c2.6836-1.8789 5.1289-4.082 7.2812-6.5508 5.2656-5.6016 10.414-11.199 15.902-16.801l0.89453 2.0703c8.4766 23.445 16.934 46.836 25.371 70.168 0.28125 0.81641 0.28125 1.707 0 2.5234-2.6875 7.3359-5.207 14.672-8.1758 21.84-10.227 26.195-21.934 51.789-35.055 76.664-0.75 1.4062-1.8242 2.6172-3.1367 3.5273-8.8477 5.6016-18.09 10.473-26.543 16.801-10.176 6.5625-18.277 15.883-23.352 26.879-4.0391 8.8086-4.9414 18.734-2.5586 28.125 2.3867 9.3945 7.9102 17.688 15.66 23.508 4.2578 3.8633 8.5664 7.6172 13.105 11.648l-3.4141 2.4062c-4.3125 2.9688-8.625 5.6016-12.77 9.0703-0.72656 0.55859-0.72656 2.1289-1.0078 3.1914v0.003907c1.0781 0.082031 2.1641 0.082031 3.2461 0 0.44922 0 0.95312-0.50391 1.3984-0.83984 4.4805-3.1367 9.0156-6.2734 13.441-9.5195 5.6016-3.9219 5.6016-4.5938 0.50391-9.2383-5.6016-5.6016-12.098-10.359-17.473-16.184-15.121-16.352-11.199-37.969 0.55859-52.191l0.003906-0.003906c7.3242-8.7305 16.094-16.137 25.926-21.898 5.1523-3.1367 10.023-6.7188 15.062-10.023h0.003906c0.59375-0.41797 1.2891-0.67188 2.0156-0.72656 12.152-0.61719 24.305-1.2305 36.512-1.6797 15.27-0.55859 30.574-1.0469 45.922-1.457h18.031l-12.32 14.391c-9.2969 11.199-18.594 22.398-28 33.152-2.1445 2.4805-2.8438 5.8945-1.8477 9.0156 1.5039 5.3086 4.25 10.184 8.0078 14.227 4.4258 5.1523 8.9609 10.246 13.16 15.512s7.8945 10.527 11.984 16.07c-3.6953 3.0234-7.3906 5.8789-10.863 8.9609h-0.003906c-1.2656 1.1484-2.2969 2.5391-3.0234 4.0859-0.33594 0.72656 0.33594 1.9023 0.55859 2.8555 1.0078 0 2.2383 0 2.9688-0.78516 4.4805-3.8633 8.8477-7.8945 13.328-11.762 2.5195-2.1289 2.8555-3.0234 0.95312-5.6016-1.9023-2.5742-4.3672-5.6016-6.6094-8.457-4.8164-6.1055-9.6875-12.152-14.391-18.312-3.6953-4.8711-7.3906-9.7422-10.754-14.84l0.003906 0.007812c-1.6445-1.9922-1.8242-4.8125-0.44922-7 2.1289-2.7422 4.0312-5.9375 6.3281-8.3438zm10.137-246.4c3.8594-0.19922 7.7305-0.19922 11.59 0-2.0703 1.625-73.586 4.5938-78.961 2.9102 0.81641-0.37891 1.6875-0.625 2.5781-0.72656 7.1133 0 14.281-0.28125 21.391-0.55859 14.504-0.22656 28.953-0.95312 43.402-1.625zm-159.38 58.184 0.44922 0.72656-4.6484 4.3672c-7.0977-15.137-15.453-29.656-24.977-43.398l7-1.9609-2.1836 4.4805c1.9609-0.33594 3.4727-0.72656 4.9844-0.89453 1.5117-0.16797 2.2383 0 2.5195 0.33594 0.36328 0.87891 0.36328 1.8633 0 2.7422-0.67188 1.8477-1.5664 3.6406-2.6328 5.9375h9.5742c-0.95312 3.0234-1.793 5.6016-2.6875 8.793l10.586 0.72656-7.5586 8.9023 11.199 2.4648-5.6016 7.7266zm3.3047-4.8711v-0.003906c-2.6914-13.699-9.957-26.082-20.605-35.109v-0.78516c1.957 0.32422 3.8477 0.96875 5.5977 1.9062 7.1719 5.8828 12.578 13.637 15.625 22.398h-2.6328c0.67188 1.6797 0.50391 3.8086 3.0781 2.2969 2.4102 4.3672 2.9688 5.8789-1.0625 9.293zm4.0312-5.6016c-2.5352-11.098-8.3984-21.16-16.797-28.84 7.7695 1.5625 14.324 6.7461 17.637 13.941 2.2969 4.7227 1.9805 10.301-0.83984 14.73zm4.875-14.113c-1.8477-3.1367-3.6953-6.1602-5.6016-9.4062l13.16-6.7188 6.2734 6.3242c-4.5938 3.1953-9.1875 6.3867-13.832 9.8008zm17.641-14.391-4.8164-4.4805 22.902-11.199c1.9023 5.6016 1.9023 5.6016-3.0781 8.8477-3.8086 2.2969-7.7266 4.5352-11.199 6.9453h-0.003906c-0.51172 0.54688-1.2539 0.82031-2 0.74219-0.74609-0.074218-1.4141-0.49609-1.8086-1.1367zm25.145 6.4961c-3.0781 2.6875-6.3281 5.2656-9.7422 8.1211l-12.152-11.199 18.027-11.426c1.5664 4.1445 3.1367 8.0078 4.4805 11.984 0.19141 0.80078-0.039063 1.6484-0.61719 2.2383zm-2.7422-23.688 30.52-15.566 1.793 2.5742-28.844 16.574zm4.3125 6.3281 47.824-28c0.78516 1.1211 1.3438 1.793 1.793 2.5742h-0.007813c3.1133 4.9883 8.3281 8.2852 14.168 8.9609 2.4062 0.50391 3.5273 1.2891 3.3594 3.7539l0.003906-0.003906c0.019531 0.85156 0.13281 1.6953 0.33594 2.5234h-3.2461l-26.879 0.95312-0.003906-0.003906c-6.457 0.46875-12.535 3.2305-17.137 7.7852-4.7031 4.1445-9.6328 8.1211-14.672 12.375zm35.953 13.441c-6.3281 7.1133-12.711 14.113-19.098 21.168l-0.003907-0.003907c-0.28516 0.25-0.60937 0.45703-0.95312 0.61719-2.3516-4.9844-4.7617-9.9102-6.9453-14.895-0.26562-0.86328-0.097656-1.8047 0.44922-2.5195 7.2227-5.6016 14.559-11.199 21.84-17.078v-0.003906c0.35937-0.23047 0.73437-0.4375 1.1211-0.61719 1.3984 3.8633 2.8008 7.6172 4.0898 11.199l-0.003906 0.003906c0.11719 0.66016-0.066407 1.3359-0.50391 1.8477zm10.695-3.1914c-5.9375 0.33594-6.2734 0-8.5117-5.6016-0.78516-1.9609-1.2891-4.0898-2.0703-6.5508 3.7539 0.39062 2.6328 4.1445 4.9297 5.6016l2.5195-4.4258 6.1602 7.9531 7.7852-8.5117 6.2734 7.6719 7.9531-8.625 6.4961 7.7852c2.0156-2.1289 3.9219-4.1445 5.6016-6.0469 1.6797-1.9023 2.5195-1.9023 4.0898 0.61719 1.0078 1.5664 2.1836 3.1367 3.5859 5.1523l6.8125-7.7344 5.6016 6.2734c1.5664-2.2383 3.0781-4.0898 4.2578-6.1055 1.0312-2.0781 3.3164-3.2188 5.5977-2.8008-1.7539 4.1836-4.3008 7.9883-7.5039 11.199-0.58984 0.42188-1.293 0.65625-2.0156 0.67188l-22.398 1.3984zm-11.199 168-0.007813-0.003906c7.1211-1.2031 14.301-2.0469 21.504-2.5195 16.801-0.55859 33.152-0.55859 49.727-0.78516 1.9023 0 3.8633 0 5.6016-0.39062 0.80859-0.23828 1.6797-0.10547 2.3789 0.35938 0.70312 0.46484 1.1641 1.2148 1.2617 2.0469l-83.047 2.8008c1.1758-0.94922 1.9609-1.8477 2.8008-1.9609zm76.777 12.434-5.6016-8.6797-6.6094 8.5664-4.3125-7.4492c-1.5664-2.5195-2.5195-2.5195-4.2578 0l-4.1992 6.3828-8.3438-8.625-7.2812 10.695-9.9141-9.5195c-2.2969 3.1367-4.7031 6.2734-7.0547 9.4648l-9.4648-8.8477-8.1758 11.199c-1.793-3.2461-3.6406-6.0469-4.9297-9.0703-0.72656-1.7344 0.89453-2.2383 2.4062-2.3516 7.3906-0.50391 14.785-1.2305 22.398-1.5117 18.367-0.72656 36.734-1.2305 55.105-1.793h3.0273c0.94531 0.14062 1.8828 0.34766 2.8008 0.61328z"/>
  <path d="m399.84 158.87s1.0625 1.793 1.3438 1.6797c1.1445-0.51172 2.2188-1.168 3.1914-1.957-1.1211-0.89453-2.0156-1.9609-2.2969-1.8477v-0.003906c-0.92969 0.48828-1.707 1.2227-2.2383 2.1289z"/>
  <path d="m388.02 157.75c-0.82422 0.48828-1.4883 1.207-1.9023 2.0703 0 0.28125 0.78516 1.0625 1.625 2.0703h-0.003906c0.73047-0.88281 1.3711-1.8398 1.9062-2.8555 0 0-1.3438-1.4531-1.625-1.2852z"/>
  <path d="m427.79 158.93c0.86719-0.26563 1.6172-0.82031 2.125-1.5703 0-0.28125-0.78516-1.2305-1.5117-2.4062-0.95313 1.1211-1.793 1.7344-2.0156 2.5195-0.22266 0.78516 1.0664 1.5664 1.4023 1.457z"/>
  <path d="m415.13 159.82c0.78516 0 1.457-0.95312 2.6328-1.8477-1.1758-0.78516-1.9609-1.625-2.2969-1.5117-0.78516 0.42578-1.4141 1.0938-1.793 1.9023 0 0 1.0625 1.5703 1.457 1.457z"/>
  <path d="m374.19 158.65c-0.44922 0.67187-1.2305 1.2891-1.2891 1.9609-0.054688 0.67188 0.67188 1.2305 1.3984 2.4062 0.67188-1.3438 1.3438-2.0703 1.3438-2.7422 0.003907-0.67188-0.94922-1.0664-1.4531-1.625z"/>
  
 </g>
</svg>
