<?xml version="1.0" encoding="UTF-8"?>
<svg width="700pt" height="700pt" class="wsvg" id="hwsvg4" version="1.1" viewBox="0 0 700 700" xmlns="http://www.w3.org/2000/svg" xmlns:xlink="http://www.w3.org/1999/xlink">

 <g>
  <path d="m350 124.08c3.0938 0 5.6016-2.5078 5.6016-5.6016v-56.875c0-3.0938-2.5078-5.6016-5.6016-5.6016s-5.6016 2.5078-5.6016 5.6016v56.879c0 3.0898 2.5078 5.5977 5.6016 5.5977z"/>
  <path d="m288.19 136.38c0.71484 0 1.4414-0.14062 2.1406-0.42969 2.8555-1.1836 4.2148-4.4609 3.0312-7.3164l-21.77-52.551c-1.1875-2.8555-4.4609-4.2188-7.3164-3.0312-2.8555 1.1836-4.2148 4.4609-3.0312 7.3164l21.77 52.551c0.89453 2.1602 2.9766 3.4609 5.1758 3.4609z"/>
  <path d="m239.75 169.75c2.1875-2.1875 2.1875-5.7305 0-7.918l-40.219-40.219c-2.1875-2.1875-5.7305-2.1875-7.918 0s-2.1875 5.7305 0 7.918l40.219 40.219c1.0938 1.0938 2.5273 1.6406 3.9609 1.6406 1.4297 0 2.8633-0.54688 3.957-1.6406z"/>
  <path d="m146.08 201.59 52.551 21.77c0.70313 0.28906 1.4258 0.42969 2.1406 0.42969 2.1992 0 4.2812-1.3047 5.1758-3.4609 1.1836-2.8555-0.17188-6.1328-3.0312-7.3164l-52.551-21.77c-2.8672-1.1836-6.1328 0.17969-7.3164 3.0312-1.1836 2.8555 0.17188 6.1328 3.0312 7.3164z"/>
  <path d="m131.6 285.6h56.879c3.0938 0 5.6016-2.5078 5.6016-5.6016s-2.5078-5.6016-5.6016-5.6016h-56.879c-3.0938 0-5.6016 2.5078-5.6016 5.6016s2.5078 5.6016 5.6016 5.6016z"/>
  <path d="m198.63 336.64-52.551 21.77c-2.8555 1.1836-4.2148 4.4609-3.0312 7.3164 0.89453 2.1562 2.9766 3.4609 5.1758 3.4609 0.71484 0 1.4414-0.14062 2.1406-0.42969l52.551-21.77c2.8555-1.1836 4.2148-4.4609 3.0312-7.3164-1.1836-2.8555-4.4648-4.2188-7.3164-3.0312z"/>
  <path d="m191.61 438.39c1.0938 1.0938 2.5273 1.6406 3.9609 1.6406 1.4336 0 2.8672-0.54688 3.9609-1.6406l40.219-40.219c2.1875-2.1875 2.1875-5.7305 0-7.918s-5.7305-2.1875-7.918 0l-40.219 40.219c-2.1914 2.1875-2.1914 5.7305-0.003906 7.918z"/>
  <path d="m283.02 427.08-21.77 52.551c-1.1836 2.8555 0.17188 6.1328 3.0312 7.3164 0.70312 0.28906 1.4258 0.42969 2.1406 0.42969 2.1992 0 4.2812-1.3047 5.1758-3.4609l21.77-52.551c1.1836-2.8555-0.17188-6.1328-3.0312-7.3164-2.8711-1.1836-6.1367 0.17578-7.3164 3.0312z"/>
  <path d="m344.4 441.52v56.875c0 3.0938 2.5078 5.6016 5.6016 5.6016s5.6016-2.5078 5.6016-5.6016v-56.875c0-3.0938-2.5078-5.6016-5.6016-5.6016s-5.6016 2.5078-5.6016 5.6016z"/>
  <path d="m409.67 424.05c-2.8555 1.1836-4.2148 4.4609-3.0312 7.3164l21.77 52.551c0.89453 2.1562 2.9766 3.4609 5.1758 3.4609 0.71484 0 1.4414-0.14062 2.1406-0.42969 2.8555-1.1836 4.2148-4.4609 3.0312-7.3164l-21.77-52.551c-1.1836-2.8555-4.457-4.2148-7.3164-3.0312z"/>
  <path d="m460.25 390.25c-2.1875 2.1875-2.1875 5.7305 0 7.918l40.219 40.219c1.0938 1.0938 2.5273 1.6406 3.9609 1.6406s2.8672-0.54688 3.9609-1.6406c2.1875-2.1875 2.1875-5.7305 0-7.918l-40.219-40.219c-2.1914-2.1875-5.7344-2.1875-7.9219 0z"/>
  <path d="m551.77 369.18c2.1992 0 4.2812-1.3047 5.1758-3.4609 1.1836-2.8555-0.17188-6.1328-3.0312-7.3164l-52.551-21.77c-2.875-1.1875-6.1328 0.17578-7.3164 3.0312-1.1836 2.8555 0.17188 6.1328 3.0312 7.3164l52.551 21.77c0.70313 0.28906 1.4258 0.42969 2.1406 0.42969z"/>
  <path d="m505.92 280c0 3.0938 2.5078 5.6016 5.6016 5.6016h56.875c3.0938 0 5.6016-2.5078 5.6016-5.6016s-2.5078-5.6016-5.6016-5.6016h-56.875c-3.0938 0-5.6016 2.5078-5.6016 5.6016z"/>
  <path d="m494.05 220.33c0.89453 2.1562 2.9766 3.4609 5.1758 3.4609 0.71484 0 1.4414-0.14062 2.1406-0.42969l52.551-21.77c2.8555-1.1836 4.2148-4.4609 3.0312-7.3164-1.1836-2.8516-4.4609-4.2148-7.3164-3.0312l-52.551 21.77c-2.8594 1.1836-4.2148 4.4609-3.0312 7.3164z"/>
  <path d="m508.39 121.61c-2.1875-2.1875-5.7305-2.1875-7.918 0l-40.219 40.219c-2.1875 2.1875-2.1875 5.7305 0 7.918 1.0938 1.0938 2.5273 1.6406 3.9609 1.6406s2.8672-0.54688 3.9609-1.6406l40.219-40.219c2.1836-2.1875 2.1836-5.7305-0.003906-7.918z"/>
  <path d="m411.81 136.38c2.1992 0 4.2812-1.3047 5.1758-3.4609l21.77-52.551c1.1836-2.8555-0.17188-6.1328-3.0312-7.3164-2.8672-1.1875-6.1328 0.17578-7.3164 3.0312l-21.77 52.551c-1.1836 2.8555 0.17188 6.1328 3.0312 7.3164 0.70312 0.29297 1.4258 0.42969 2.1406 0.42969z"/>
  <path d="m275.75 368.9c18.723 18.723 43.613 29.188 70.152 29.473 64.922 0 117.74-52.82 117.74-117.74 0-64.922-52.82-117.74-117.74-117.74-26.754 0-52.949 9.2188-73.758 25.957-2.4102 1.9375-2.793 5.4648-0.85156 7.875 1.9453 2.4102 5.4688 2.7891 7.875 0.85156 19.098-15.363 42.172-23.484 66.734-23.484 58.75 0 106.54 47.793 106.54 106.54 0 28.461-11.082 55.211-31.203 75.336-20.121 20.121-46.871 31.203-75.27 31.203h-0.011718c-23.527-0.24609-45.648-9.5469-62.289-26.188-27.457-27.457-27.457-72.133 0-99.59 21.523-21.523 56.555-21.531 78.09 0 16.785 16.789 16.785 44.102 0 60.887-12.992 13-34.133 12.992-47.125 0-2.1875-2.1875-5.7305-2.1875-7.918 0s-2.1875 5.7305 0 7.918c17.359 17.359 45.609 17.355 62.965 0 21.152-21.152 21.152-55.57 0-76.723-25.891-25.891-68.027-25.895-93.93 0-31.828 31.82-31.828 83.605-0.003906 115.43z"/>
  
 </g>
</svg>
