<?xml version="1.0" encoding="UTF-8"?>
<svg width="700pt" height="700pt" class="wsvg" version="1.1" viewBox="0 0 700 700" xmlns="http://www.w3.org/2000/svg" xmlns:xlink="http://www.w3.org/1999/xlink">
 <defs>
  
 </defs>
 <g>
  <path d="m289.24 233.41c-1.2891-1.8477-2.6875 0-4.1992 0.39062-2.2383-4.4258-4.4258-8.793-6.7188-13.105v0.003906c-0.58594-1.082-0.58594-2.3867 0-3.4727 0.42578-1.2695 0.32813-2.6562-0.27344-3.8516-0.59766-1.1992-1.6484-2.1094-2.918-2.5312-1.082-0.32031-2.2461-0.16797-3.207 0.41797-0.96094 0.58984-1.625 1.5547-1.832 2.6641-0.21094 1.293 0.11328 2.6172 0.89062 3.6719 0.78125 1.0508 1.9531 1.7461 3.25 1.9258 1.043-0.011719 1.9609 0.67578 2.2422 1.6797 0.50391 1.1211 1.1211 2.2383 1.6797 3.3047l5.6016 10.754-20.219 16.742-0.55859-0.78516c-4.8711-11.199-9.8555-22.793-14.559-34.328h-0.003907c-0.85547-2.4375-3.0312-4.1758-5.5977-4.4805-6.1055-1.1211-12.266-2.1289-18.48-3.1914l-11.648-2.0156c0-1.9023 0-2.9102 2.2383-3.0234h0.003907c1.8242-0.21484 3.5859-0.82422 5.1484-1.793 5.6094-3.2461 9.5039-8.7969 10.641-15.176 1.1367-4.1836 0.058594-8.6602-2.8555-11.871-3.7617-4.1758-8.6719-7.1523-14.109-8.5664-3.7969-0.60547-7.6875 0.10938-11.02 2.0234-3.332 1.918-5.9062 4.918-7.293 8.5039-1.7305 6.1641-0.66406 12.777 2.9102 18.086 1.25 2.7031 3.3828 4.8945 6.0469 6.2188 1.793 0.61719 2.2969 1.625 1.625 3.3594l-0.50391 1.5664h-2.2383c-10.359-1.0078-20.777-1.9609-31.137-3.0234-1.6797-0.40234-3.4375 0.26172-4.4258 1.6797-1.0625 1.5117-2.2383 2.9102-3.1367 4.4805-4.9297 8.7344-9.8359 17.492-14.727 26.266-1.3516 2.0938-1.6797 4.6875-0.89453 7.0547 3.0234 8.3438 5.6016 16.801 8.8477 25.031 0.83984 2.3516 1.8477 4.5352 2.9102 7.1133l-8.625 3.5273h0.003906c-1.043 0.52734-2.0352 1.1484-2.9688 1.8477-0.20703 0.30469-0.20703 0.70312 0 1.0078 0.22266 0.29688 0.57812 0.46484 0.94922 0.44922 0.625-0.17188 1.2266-0.41406 1.793-0.73047l9.6328-4.4258v0.003906c0.90625 1.3125 1.918 2.5469 3.0234 3.6953 0.85156 0.39453 1.8359 0.39453 2.6875 0 0.39062 0 0.55859-1.5664 0.39062-2.2969h0.003906c-0.4375-1.4375-0.98047-2.8398-1.625-4.1992 4.4258-2.4062 8.793-4.7031 13.105-7.1133 1.043-0.64453 2.3672-0.64453 3.4141 0 1.0352 0.625 2.3242 0.64844 3.3789 0.054688 1.0547-0.58984 1.7109-1.6992 1.7188-2.9102 0.39063-2.0898-0.91016-4.1211-2.9688-4.6484-2.0703-0.39062-3.5859 0.83984-4.4258 3.2461v0.003906c-0.33594 0.98047-0.96094 1.8398-1.793 2.4648-2.9102 1.8477-5.8789 3.5859-8.9023 5.6016-1.2891 0.78516-2.6875 1.457-3.9766 2.1836-0.28125-0.44922-0.44922-0.55859-0.50391-0.78516-3.7344-9.707-7.2812-19.434-10.641-29.176-0.21875-0.65625-0.21875-1.3633 0-2.0195 2.4062-4.4258 4.7617-8.8477 7.2812-13.215 2.5195-4.3672 5.2656-8.793 7.9531-13.215l1.2891-2.2969 3.6953 6.2148c9.8203 17.922 19.582 35.84 29.289 53.762h-0.003907c0.33594 0.78516 0.33594 1.6758 0 2.4648-2.7422 4.7617-5.6016 9.5742-8.3984 14.168-9.3516 14.168-18.871 28-28 42.449v-0.003907c-0.34766 0.76562-0.57422 1.5781-0.67188 2.4102l8.3984 0.67187 15.398 1.2305h0.003906c1.1094 0.015625 2.0742 0.77344 2.3516 1.8477 1.3984 4.0312 2.9688 7.9531 4.4805 11.93l2.1836 5.9375-5.375-2.4648-17.867-7.7305c-1.5664-0.67187-2.9688-0.67187-3.9219 0.83984-1.7344 2.8008-3.3047 5.6016-4.8164 8.5117-0.67188 1.1758 0 2.0703 1.457 1.793h0.003906c0.69141-0.12891 1.3203-0.48047 1.7891-1.0078 1.3203-1.3633 2.5391-2.8242 3.6406-4.3672 0.72656-1.1211 1.3438-1.1211 2.5195-0.61719l25.199 10.586 1.5117 0.44922c1.625 0.39063 2.6875-0.33594 2.6328-2.0703v-0.003906c-0.007812-0.91406-0.15625-1.8203-0.44531-2.6875l-7.168-18.816c-0.13281-0.41797-0.22656-0.85156-0.28125-1.2891h1.3438c6.9453 0.61719 13.887 1.3438 20.832 1.8477 1.3008 0.03125 2.4609 0.82031 2.9688 2.0195 2.8555 5.0977 5.6016 10.191 8.793 15.176 0.625 0.89453 0.60547 2.0938-0.058593 2.9648-4.1445 7.168-8.1758 14.281-12.207 21.449-0.69141 1.0977-1.3086 2.2383-1.8477 3.418-0.41016 0.64844-0.52344 1.4453-0.30859 2.1836s0.73438 1.3477 1.4297 1.6797c3.0781 1.5664 6.2148 3.0234 9.4062 4.3125 0.67188 0 1.793-0.55859 2.6875-0.89453v-0.003906c-0.28906-0.92578-0.66406-1.8281-1.1172-2.6875 0-0.33594-0.78516-0.44922-1.1758-0.67188l-5.6016-3.0781c0.054688-0.25781 0.14844-0.50391 0.28125-0.73047 4.4805-7.9531 9.0156-15.902 13.609-23.742h-0.003907c1.0391-1.3125 1.2148-3.1055 0.44922-4.5938-2.3516-4.7617-4.7617-9.5742-7.168-14.336 0-0.44922-0.50391-0.95312-0.78516-1.5664l27.16 1.0078c-0.55859-1.1758-0.83984-2.0703-1.2891-2.8008-3.7539-5.6016-7.4492-11.199-11.199-16.465-9.5742-13.664-19.262-27.383-29.117-40.879-0.69141-0.89062-0.69141-2.1328 0-3.0234 1.7344-2.9688 3.3047-6.0469 5.0977-9.0156h-0.003907c8.75-13.949 16.406-28.551 22.906-43.68 0.28125-0.72656 0.61719-1.3984 1.0078-2.3516 2.6875 6.7188 5.0977 13.105 7.7852 19.434 2.1289 4.9844 4.5938 9.8555 7 14.727 1.1211 2.1836 2.5742 2.4648 4.4805 1.0078 3.9766-3.0781 7.9531-6.1602 11.871-9.2969 3.9219-3.1367 6.7188-5.6016 10.137-8.3984l5.2656 9.0156h0.55859l-0.003906-0.003907c-0.6875-3.6562-2.0938-7.1406-4.1445-10.246 0.83984-1.5117 3.25-2.5742 1.6797-4.7617zm-64.566 90.496 19.266 1.2305v0.003907c0.99219 0.066406 1.8789 0.63672 2.3555 1.5117 0.47656 0.87109 0.47656 1.9297-0.003907 2.8008l-4.0898 7.3359-5.6016-8.8477-5.6016 7.5586c-2.0703-2.3516-3.9219-4.4805-5.8789-6.6094-1.9609-2.1289-1.8477-1.457-3.1367 0.28125-1.2891 1.7344-2.9688 3.5859-4.7031 5.6016-2.2383-3.3047-4.0898-6.1602-6.1602-9.2969l-7.168 8.0078-7.9492-9.2422-6.7773 7.3906c-1.3984-1.625-2.7422-3.3047-4.1992-4.8711-1.457-1.5664-2.1836-2.0156-4.1992 0l-3.1914 2.9688c-1.0859-1.8125-2.0781-3.6797-2.9688-5.5977-0.55859-1.1758 2.0703-4.1445 3.4727-4.0312 6.6641 0.67188 13.328 1.457 19.992 1.9609 8.8477 0.66797 17.473 1.2305 26.543 1.8438zm15.793-97.328-52.527-6.1055-9.8555-1.1758-0.003906 0.003906c-0.54297-0.12109-1.0352-0.41797-1.3984-0.83984-1.5117-2.5742-3.0234-5.207-4.4258-7.8398 0-0.33594 0-0.83984 0.33594-1.457l6.6641 8.0078 5.0391-7.9531c1.6797 3.1914 3.1914 5.9375 4.9297 9.1289 1.5664-2.1289 3.1367-4.0898 4.4805-6.1602 1.3438-2.0703 1.793-1.9023 2.9688 0s2.7422 4.4258 4.3672 7l7.4492-7.1133 5.6016 8.2891 6.832-6.4961 4.3672 8.8477 6.6641-7.6172 3.8633 9.5195 7.7852-6.5508h0.44922z"/>
  <path d="m549.86 281.57c-1.2461-0.61719-2.5391-1.1445-3.8633-1.5664l-6.7773-2.9102c0.33594-0.83984 0.50391-1.3438 0.72656-1.793h0.003906c4.3477-9.7852 8.0859-19.828 11.199-30.074 0.78125-2.6562 0.35156-5.5273-1.1758-7.8398l-5.6016-9.4648c-3.4141-6.1602-6.832-12.32-10.305-18.426-1.6797-2.9102-3.9219-4.9844-7.6719-3.7539v0.003907c-0.51953 0.058593-1.0469 0.058593-1.5664 0l-19.434 1.8477-11.199 1.0078c-1.1211-3.8633-1.1211-3.8633 1.9609-5.6016v0.003906c0.40625-0.21094 0.78516-0.47266 1.1211-0.78516 5.7266-4.7656 8.707-12.074 7.9492-19.488-0.46484-4.1562-2.5352-7.9648-5.7656-10.621-3.2305-2.6562-7.3672-3.9492-11.535-3.6016-6.3281 0.96094-12.074 4.2344-16.129 9.1836-2.168 2.3242-3.2461 5.457-2.9688 8.625 0.26562 6.418 3.3633 12.383 8.457 16.297 2.3047 1.6953 4.9336 2.8984 7.7266 3.5273 1.9609 0.44922 2.4648 1.1211 2.1836 2.9688-0.54688 0.18359-1.1094 0.3125-1.6797 0.39062-9.4062 1.625-18.871 3.1367-28 4.8164-1.9609 0.33594-4.1445 0.78516-5.0391 2.8555-2.4648 5.6016-4.8164 11.199-7.2227 16.801-2.7422 6.4961-5.6016 13.047-8.457 19.992-6.832-5.6016-13.496-11.199-20.105-16.801 2.4648-4.8711 4.8711-9.3516 7.1133-13.887 0.61719-1.1211 1.1211-1.9023 2.5742-1.8477 1.9102-0.33984 3.4453-1.7617 3.9219-3.6406 0.45703-1.8242-0.25781-3.7383-1.793-4.8164-1.5469-0.97266-3.5547-0.76562-4.8711 0.50391-1.6289 1.3633-2.25 3.5898-1.5703 5.5977 0 0.61719 0.55859 1.5117 0.33594 1.9609-2.3516 4.8711-4.8164 9.6328-7.2812 14.449-2.5742-1.457-3.4727-1.5664-4.1992-0.44922-1.457 2.2383 0.67188 3.1914 1.793 4.5938-2.0312 3.0938-3.4375 6.5547-4.1445 10.191h0.55859l5.6016-9.0703 2.5742 2.1836c6.4961 5.207 12.879 10.414 19.375 15.566 1.8477 1.3984 3.3047 1.1758 4.3672-0.83984 2.1289-3.9766 4.3125-8.0078 6.1055-12.207 2.4648-5.6016 4.6484-11.199 6.9453-17.191 0.55859-1.5117 1.1211-3.0781 1.8477-4.9297 0.44922 0.95312 0.72656 1.5664 0.95312 2.1289 4.6445 11.512 10.09 22.684 16.297 33.43 3.8633 6.5508 7.6172 13.215 11.48 19.77 0.80078 0.95703 0.80078 2.3477 0 3.3047-9.1445 12.43-18.125 24.844-26.938 37.238-4.6484 6.6094-9.1289 13.328-13.664 19.992-0.49219 0.90234-0.92188 1.8398-1.2852 2.8008l27.215-1.0078c-0.39062 0.67188-0.61719 1.1211-0.83984 1.5664-2.2383 4.3125-4.3672 8.625-6.6641 12.879v0.003906c-1.3281 2.3398-1.1289 5.25 0.50391 7.3906 4.5938 7.5039 8.793 15.23 13.328 23.07-2.2461 1.0977-4.4336 2.3125-6.5508 3.6406-0.87109 0.67188-1.3867 1.7031-1.4023 2.8008 0.44922 1.1758 1.8477 1.3984 3.1914 0.78516 1.3438-0.61719 3.8086-1.5664 5.6016-2.4648 5.6016-2.5742 5.6016-3.3594 2.6328-8.6797-4.2578-7.2227-8.3438-14.559-12.488-21.895v-0.003906c-0.26953-0.66406-0.26953-1.4062 0-2.0703 3.1367-5.6016 6.3281-11.199 9.5742-16.801 0.48438-0.625 1.1836-1.043 1.9609-1.1758 5.2656-0.61719 10.527-1.0625 15.793-1.5664l7.168-0.55859-1.625 4.7031c-2.0156 5.2656-4.0898 10.414-5.9375 15.734h0.003906c-0.50391 1.2969-0.50391 2.7344 0 4.0312 0.89453 1.5117 2.5195 0.44922 3.6953 0 3.6406-1.457 7.2227-3.0234 10.809-4.5352 4.4805-1.8477 9.0156-3.5273 13.383-5.6016 1.9023-0.89453 2.8555-0.89453 3.9766 1.0078 0.96484 1.5508 2.1758 2.9297 3.582 4.0898 0.55859 0.44922 1.6797 0 2.5195 0.28125v-2.2383c-0.95312-2.0156-2.0703-3.9219-3.1914-5.8789-2.1289-3.6953-2.5742-3.9219-6.4414-2.2383l-19.938 8.625-1.9609 0.67188c1.9609-5.1523 3.9766-9.9102 5.6016-14.785 1.0625-3.4141 2.5195-5.6016 6.4414-5.0391v-0.007813c1.0234 0.11328 2.0586 0.11328 3.082 0l17.863-1.5117c-0.125-0.74609-0.32813-1.4805-0.61719-2.1836-5.2656-8.1211-10.527-16.297-15.902-24.359-7.4141-10.258-14.293-20.895-20.609-31.863-0.64844-0.96484-0.64844-2.2266 0-3.1914 9.6328-17.508 19.188-35.02 28.672-52.527l3.9219-7.168s0.44922 0 0.44922 0.33594c5.3203 9.1836 10.695 18.367 15.902 27.609v-0.003907c0.39453 0.98828 0.39453 2.0938 0 3.082-2.4648 7.3359-5.0977 14.617-7.7266 21.895-0.89453 2.5195-1.9609 4.9297-2.9688 7.5586-0.73047-0.33594-1.4375-0.71094-2.1289-1.1172l-10.473-6.1055c-1.2812-0.59375-2.2148-1.7539-2.5195-3.1367-0.22266-1.207-1.0742-2.1992-2.2305-2.6055s-2.4453-0.15625-3.3711 0.64453c-1.5781 1.4414-1.8867 3.8086-0.72656 5.6016 1.082 1.4414 3.0312 1.9102 4.6484 1.1211 0.52734-0.29297 1.1367-0.41016 1.7344-0.33594l14.391 7.6172c-0.55859 1.3984-1.0625 2.5195-1.5117 3.6953-0.44922 1.1758-1.1211 2.1289 0 2.9102h0.003907c1.1133 0.70312 2.5859 0.37891 3.3047-0.72656 0.83984-1.0625 1.625-2.1289 2.4062-3.2461 3.5273 1.625 6.9453 3.3047 10.359 4.8164v-0.003906c0.70312 0.13672 1.4258 0.13672 2.1289 0-0.22266-0.83984-0.44922-1.6797-0.95312-1.9609zm-35.785 41.219c2.6328 0 5.207-0.44922 7.7852-0.78516 1.457 0 2.0156 0.55859 2.5195 1.5664 0.50391 1.0078 1.7344 1.793 0.67188 3.3047-0.98438 1.5156-1.8438 3.1094-2.5742 4.7617-1.3438-1.2891-2.5742-2.2383-3.5859-3.4141-1.0078-1.1758-2.2969-1.1758-3.3594 0s-2.5742 2.9688-3.8633 4.4805l-0.83984 0.89453-6.7773-7.3906-7.6719 9.3516-7.168-8.0078-6.1602 9.2969c-1.793-2.1289-3.3594-3.9219-4.8164-5.6016-1.457-1.6797-1.6797-1.6797-3.0234 0l-5.6016 6.6641-5.6016-7.5586-5.6016 8.8477c-1.6797-2.9102-3.1914-5.6016-4.5352-8.1211-0.67188-1.2305 1.1211-3.4141 2.8555-3.5273l10.871-1.2891zm13.664-109.98c-1.3984 2.5195-2.8008 5.0391-4.3125 7.5039h0.003906c-0.37109 0.49219-0.91016 0.82812-1.5117 0.95312l-48.496 5.6016c-4.4805 0.55859-8.9609 1.3984-13.664 2.1289l-3.9219-8.793h0.50391l8.0078 6.5508 3.8633-9.5195 6.6641 7.6172 4.3672-8.8477 6.832 6.3242 5.6016-8.2891 7.3906 7.1133c1.625-2.5195 3.0234-4.7617 4.4258-7.0547 1.3984-2.2969 1.6797-1.793 2.8555 0 1.1758 1.793 2.9102 4.0898 4.5938 6.3281l4.9297-9.1836 4.9844 7.9531 6.6641-7.9531h0.44922l-0.003906-0.003906c0.019531 0.53516-0.058594 1.0625-0.22656 1.5703z"/>
  <path d="m385.28 236.88c-7.0742-3.082-14.688-4.7383-22.402-4.8711-11.887-0.42187-23.754 1.2656-35.055 4.9844-7.1719 2.2461-13.965 5.5469-20.16 9.8008-4.4727 3.0117-7.7578 7.4844-9.2969 12.656-2.1758 7.8047-2.3086 16.039-0.39063 23.91 4.1367 18.992 13.891 36.301 28 49.672 3.5312 3.7734 7.7266 6.8711 12.375 9.1289 7.7656 4.2148 17.184 4 24.754-0.55859 2.9453-1.7852 5.6875-3.8867 8.1758-6.2734 18.871-17.23 29.57-41.645 29.453-67.199-0.33594-3.6953-0.39062-7.4492-1.0078-11.199-0.92969-8.7695-6.4219-16.395-14.445-20.051zm-82.207 22.398-0.003907 0.003906c0.91016-3.3789 3.0195-6.3047 5.9375-8.2344 9.6641-6.9453 20.766-11.633 32.48-13.719 6.1055-0.95312 12.266-1.6797 18.367-2.4648v0.33594c8.043-0.21094 16.039 1.2773 23.465 4.3672 4.4023 1.8945 8.0117 5.2578 10.207 9.5195 2.1992 4.2578 2.8438 9.1484 1.832 13.836-1.1523 3.8438-3.5586 7.1953-6.832 9.5195-7.3359 5.4961-15.879 9.1641-24.918 10.695-9.582 1.9609-19.344 2.918-29.121 2.8555-8.1172-0.074219-16.07-2.2773-23.074-6.3828-3.4766-2.0234-6.1875-5.1484-7.6953-8.8789-1.5117-3.7305-1.7383-7.8555-0.64844-11.73zm88.984 41.441c-0.44922 1.0078-1.793 1.6797-2.8008 2.3516-9.4453 5.7461-20.035 9.3398-31.027 10.531-15.941 1.625-32.035-0.83984-46.758-7.168-1.6289-0.52344-2.9258-1.7617-3.5273-3.3633-0.50391-1.5117-1.1758-2.9688-1.9609-4.8164 31.586 16.07 61.266 14.281 89.602-7.4492-1.1797 3.1406-2.1875 6.4414-3.5312 9.6367zm4.4258-16.129c-1.3438-1.5117-2.6328-3.0781-4.0312-4.5352h-0.003906c-0.59766-0.43359-1.2617-0.77344-1.9609-1.0078-0.37891 0.63672-0.67969 1.3125-0.89453 2.0156-0.95312 3.8633-1.793 7.7266-2.6875 11.594h-0.003906c-0.10938 0.34375-0.23828 0.67969-0.39062 1.0078l-8.0625-9.7422-4.2578 16.801-9.3516-11.199c-0.55859 5.0391-1.0625 9.6328-1.625 14.84l-10.137-13.164-7 15.625-8.7344-13.215h-0.61719l-3.8633 11.871-10.305-13.945-5.0391 9.3516-6.0469-13.273-5.0977 8.6797c-2.1289-1.1758-5.6016-16.52-5.0977-21.168 2.0703 2.2383 4.1992 4.5938 6.3828 6.832l0.003906 0.003907c2.9141 2.8203 6.5625 4.7578 10.527 5.5977 4.8633 1.1875 9.8359 1.8438 14.84 1.9609 13.633 0.09375 27.188-2.0039 40.152-6.2148 6.0703-1.625 11.773-4.4023 16.801-8.1758 3.1562-2.418 5.6758-5.5703 7.3359-9.1836l0.61719-1.2891c0.54688 6.5859 0.054688 13.219-1.457 19.656z"/>
  <path d="m229.49 329.28c0.33594 0 1.0078-0.72656 2.0156-1.5117-1.1211-0.72656-1.6797-1.3438-2.3516-1.457s-1.2305 1.0078-1.1211 1.3438c0.26172 0.70703 0.78125 1.2852 1.457 1.625z"/>
  <path d="m188.61 323.01c-0.73828 0.19922-1.3516 0.71094-1.6797 1.3984 0 0.33594 0.78516 1.0625 1.5117 2.0156 0.72656-0.89453 1.457-1.457 1.457-1.9609-0.003907-0.5-0.95313-1.5664-1.2891-1.4531z"/>
  <path d="m203.95 327.15c0.39062 0 0.95312-0.72656 1.7344-1.3984-0.78516-0.67188-1.3984-1.457-1.793-1.3438v-0.003906c-0.66406 0.19922-1.1719 0.73047-1.3438 1.4023 0 0.50391 0.83984 1.2305 1.4023 1.3438z"/>
  <path d="m216.89 328.21c0.39062-0.50391 1.1211-1.0078 1.1758-1.5117s-0.55859-1.0625-1.2305-2.1836c-0.67188 1.1758-1.2891 1.793-1.2891 2.3516 0 0.5625 0.83984 0.89844 1.3438 1.3438z"/>
  <path d="m241.98 330.4c0.50391 0 1.0078-0.67188 1.9023-1.3438l-1.6797-1.625c-0.50391 0.55859-1.2305 1.0078-1.457 1.6797-0.22266 0.67578 0.78516 1.2891 1.2344 1.2891z"/>
  <path d="m178.47 323.29c0.44922 0.44922 0.89453 1.1758 1.3438 1.2305 0.44922 0.054688 1.1211-0.61719 1.9609-1.1758-0.78516-0.61719-1.2891-1.3438-1.6797-1.2305-0.39453 0.10938-1.1211 0.72656-1.625 1.1758z"/>
  <path d="m230.5 220.47c-0.44922 0.50391-1.1758 0.95312-1.2891 1.5664-0.11328 0.61719 0.67188 0.95313 1.3984 1.9023 0.55859-1.0078 1.1758-1.5664 1.1211-2.0703-0.054687-0.50391-0.78125-0.94922-1.2305-1.3984z"/>
  <path d="m182.56 215.71c0.44922 0.55859 0.83984 1.2891 1.3984 1.5117 0.55859 0.22266 1.0078-0.50391 2.1289-1.1758-1.0625-0.72656-1.625-1.2891-2.2383-1.3438-0.61719-0.054687-0.83984 0.67188-1.2891 1.0078z"/>
  <path d="m193.54 217.17c0.1875 0.60938 0.64062 1.1055 1.2344 1.3438 0.44922 0 1.0078-0.61719 1.9609-1.2305-0.95312-0.67188-1.5117-1.2305-2.0703-1.2891-0.5625-0.054688-1.1797 0.83984-1.125 1.1758z"/>
  <path d="m217.95 220.19c0.44922 0.39062 0.83984 1.0078 1.2891 1.0625 0.44922 0.054688 0.89453-0.61719 1.6797-1.1758-0.72656-0.55859-1.2891-1.2891-1.625-1.1758-0.33594 0.11328-0.89844 0.83984-1.3438 1.2891z"/>
  <path d="m207.03 217.17s-0.95312 0.72656-0.95312 1.0625c0 0.33594 0.55859 0.95312 1.1758 1.793 0.50391-0.83984 1.1211-1.3984 1.0625-1.793h0.003906c-0.26172-0.51953-0.73047-0.90234-1.2891-1.0625z"/>
  <path d="m470.57 331.24c0.61719 0 1.1758-0.83984 2.1836-1.5664-0.83984-0.67188-1.457-1.5117-1.793-1.3984h0.003907c-0.69141 0.26172-1.2539 0.78516-1.5703 1.4531-0.10938 0.67188 0.83984 1.5703 1.1758 1.5117z"/>
  <path d="m511.5 327.66c0.61719 0 1.2891-0.61719 1.9609-0.95312v-0.72656c-0.67188-0.39062-1.2891-1.0078-2.0156-1.0625-0.72656-0.054687-1.2891 0.89453-1.2305 1.2891 0.054688 0.39062 0.78125 1.4531 1.2852 1.4531z"/>
  <path d="m497.56 327.82c0-0.55859-0.61719-1.1758-1.1758-2.2383-0.72656 1.0078-1.457 1.5664-1.3984 2.0156 0.054687 0.44922 0.83984 1.1211 1.2891 1.625 0.44531-0.44922 1.2305-0.89844 1.2852-1.4023z"/>
  <path d="m483.28 330.06c0.44922 0 1.0078-0.61719 1.9609-1.2305-0.95313-0.72656-1.457-1.3984-2.0703-1.5117-0.61719-0.11328-1.1211 0.89453-1.1211 1.3984h-0.003906c0.14844 0.63281 0.61328 1.1445 1.2344 1.3438z"/>
  <path d="m457.97 329.62s-0.89453 0.61719-1.793 1.2891c0.83984 0.78516 1.2891 1.5117 1.793 1.625s1.3984-0.83984 1.3438-1.1211v-0.003906c-0.23828-0.72656-0.71094-1.3594-1.3438-1.7891z"/>
  <path d="m521.53 325.3c-0.19922-0.59766-0.67969-1.0625-1.2891-1.2344-0.61719 0.10547-1.1289 0.53516-1.3438 1.1211 0 0.44922 0.67188 1.0078 1.2891 1.9023 0.67188-0.83594 1.4023-1.3398 1.3438-1.7891z"/>
  <path d="m514.81 217.95c0 0.39062 0.67188 0.89453 1.0625 1.3438 0.60547-0.4375 1.1328-0.96484 1.5703-1.5703 0 0-0.61719-0.89453-1.2891-1.7344-0.61719 0.89453-1.2305 1.3984-1.3438 1.9609z"/>
  <path d="m468.38 224c0 0.33594 0.83984 1.1758 1.2891 1.1758s1.0078-0.72656 1.8477-1.3984c-0.89453-0.61719-1.5117-1.3984-1.9023-1.2891-0.62109 0.28906-1.0742 0.84766-1.2344 1.5117z"/>
  <path d="m504.05 219.3c0 0.44922 0.89453 0.83984 1.3984 1.2305 0.39062-0.50391 1.0078-0.95312 1.0625-1.5117s-0.61719-0.89453-1.2891-1.625c-0.55469 1.0078-1.2266 1.4023-1.1719 1.9062z"/>
  <path d="m479.7 222.04c0 0.39063 0.67188 1.0625 1.1211 1.1758 0.44922 0.11328 0.95312-0.50391 1.8477-1.0625-0.83984-0.61719-1.3438-1.2305-1.8477-1.2891-0.50391-0.054687-1.1211 0.73047-1.1211 1.1758z"/>
  <path d="m491.79 220.3c0 0.39062 0.78516 0.72656 1.2305 1.1211 0.44922 0.39062 0.89453-0.83984 1.0078-1.3438 0.11328-0.50391-0.61719-0.78516-1.1211-1.457-0.55859 0.72656-1.1758 1.2305-1.1172 1.6797z"/>
  <path d="m334.77 262.47c1.4609 1.0586 3.1133 1.8203 4.8711 2.2383 5.1055 0.85937 10.348-0.13281 14.785-2.8008 2.2617-1.1445 3.6445-3.5117 3.5273-6.0469 0.19531-1.0117-0.03125-2.0586-0.62109-2.9023-0.58984-0.84375-1.5-1.4141-2.5156-1.5781-1.957-0.47266-3.9375-0.82812-5.9375-1.0625h-3.1367c-4.6602 0.44922-8.9219 2.8242-11.758 6.5508-0.83984 0.76172-1.25 1.8867-1.0938 3.0078s0.85938 2.0938 1.8789 2.5938z"/>
  <path d="m387.07 269.08c1.2891 0 2.4062-0.50391 2.3516-1.9023-0.054687-1.3984-0.95312-1.3438-1.8477-2.4648-1.0625 1.2305-2.1836 1.9023-2.4062 2.8555-0.22266 0.95312 0.78516 1.5703 1.9023 1.5117z"/>
  <path d="m308.67 263.2c0-1.0625-0.44922-1.9609-1.7344-1.9023-1.2891 0.054687-2.5742 1.457-2.1836 2.4648 0.36328 0.63672 0.85938 1.1875 1.4531 1.6211 1.793-0.054687 2.5781-0.61328 2.4648-2.1836z"/>
  <path d="m310.8 254.74c0-0.39063-1.457-1.8477-1.625-1.7344-0.93359 0.65234-1.8008 1.4023-2.5742 2.2383l2.0703 1.8477c0.89453-0.94922 2.1289-1.5078 2.1289-2.3516z"/>
  <path d="m308.22 271.82c0 0.67188 0.78516 1.5117 1.625 2.8008l2.3516-2.4648c-0.72656-0.67188-1.3438-1.6797-2.2383-1.9023-0.89844-0.22656-1.7383 0.94922-1.7383 1.5664z"/>
  <path d="m387.74 249.54c0.50391-0.78516 1.2891-1.457 1.457-2.2383 0.11328-0.5-0.054688-1.0234-0.44141-1.3633-0.38281-0.33594-0.92578-0.4375-1.4062-0.26172-0.89453 0.25-1.6328 0.88672-2.0156 1.7344 0 0.55859 0.95312 1.3984 1.457 2.1289z"/>
  <path d="m339.08 242.37 2.5195-2.4648c-0.61719-0.44922-1.1758-1.2891-1.793-1.2891-0.61719 0-2.6328 0-2.6328 1.8477 0.003906 0.33984 1.0117 1.0117 1.9062 1.9062z"/>
  <path d="m338.24 282.41c0.61719 0.50391 1.2891 1.5117 1.7344 1.457h0.003906c0.95313-0.29688 1.8281-0.79297 2.5742-1.457l-1.957-2.4062z"/>
  <path d="m320.66 248.86c-0.50391-0.50391-1.2305-1.625-1.5664-1.5117-0.96484 0.46484-1.8711 1.0469-2.6914 1.7383l1.5664 2.2969z"/>
  <path d="m354.26 237.95-2.0703-1.9609-2.2969 2.2383c0.67188 0.50391 1.3984 1.5117 1.9023 1.3984 0.50391-0.10938 1.6797-1.0625 2.4648-1.6758z"/>
  <path d="m391.44 259.39c0.88281-0.17578 1.6211-0.78516 1.957-1.6211 0-0.50391-0.83984-1.3438-1.6797-2.6328-1.0625 1.2305-2.0703 1.9023-2.0703 2.6328 0 0.72656 1.1211 1.6211 1.793 1.6211z"/>
  <path d="m377.55 275.86c1.1758 0 2.2969-0.39062 2.1289-1.7344-0.16797-1.3438-0.89453-1.2305-1.7344-2.2383-1.0078 1.0078-2.1289 1.625-2.2969 2.3516-0.16797 0.72656 0.78516 1.6758 1.9023 1.6211z"/>
  <path d="m326.98 281.62c0.27734 0.89844 0.92969 1.6328 1.793 2.0156 0.55859 0 1.3984-0.95312 2.1289-1.457l-1.9609-2.6328c-1.0078 1.0078-2.1289 1.793-1.9609 2.0742z"/>
  <path d="m318.59 277.82c0-0.67188-0.83984-1.3438-1.7344-2.5195l-2.0703 2.4648c0.67188 0.50391 1.3438 1.3984 2.0156 1.457 0.66797 0.054688 1.8438-0.89844 1.7891-1.4023z"/>
  <path d="m327.6 246.01 2.5742-2.2969c-0.67188-0.44922-1.2891-1.1758-2.0156-1.2891-0.72656-0.11328-2.3516 0.33594-2.1836 1.793-0.11328 0.50391 0.72656 0.95312 1.625 1.793z"/>
  <path d="m367.47 240.8c0.95312-0.89453 2.0156-1.3984 2.1289-2.0703 0.11328-0.67188-0.89453-1.5117-1.9609-1.5117-1.0625 0-2.1289 0-1.9609 1.3984 0.16797 1.3984 1.1211 0.94922 1.793 2.1836z"/>
  <path d="m367.7 278.32c-0.61719-0.44922-1.3438-1.3984-1.7344-1.2305-0.85547 0.39844-1.6172 0.97266-2.2422 1.6797l2.1289 1.7344z"/>
  <path d="m380.07 241.25-2.0703-2.0156-2.0703 2.1289c0.67187 0.50391 1.3438 1.3438 2.0156 1.3438 0.67188 0 1.5117-0.94922 2.125-1.457z"/>
  <path d="m353.7 279.61c-0.89453 0.39453-1.7266 0.92188-2.4648 1.5664l1.6797 1.8477 2.2383-2.2383c-0.5-0.44922-1.1172-1.2891-1.4531-1.1758z"/>
  <path d="m343.62 296.18c0 0.72656 0.95312 1.3984 1.457 2.0703l1.9609-2.1289-2.0156-1.9023c-0.62109 0.67188-1.4609 1.3438-1.4023 1.9609z"/>
  <path d="m358.4 292.82c0 0.67188 0.78516 1.3438 1.2305 2.0703l1.9023-1.9023-1.9023-2.1836c-0.44531 0.67188-1.2305 1.3438-1.2305 2.0156z"/>
  <path d="m383.6 284.65c0 0.61719 0.83984 1.2305 1.3438 1.8477l2.0156-1.7344-2.1289-1.9609c-0.55859 0.61328-1.2305 1.2305-1.2305 1.8477z"/>
  <path d="m329.56 295.73c0 0.44922 0.72656 1.0078 1.1211 1.5117l1.793-1.6797-1.6797-1.5117c-0.44922 0.5625-1.1211 1.1211-1.2344 1.6797z"/>
  <path d="m370.78 289.52c0 0.55859 0.55859 1.1211 0.89453 1.7344l0.72656 0.003906c0-0.55859 0.78516-1.1758 0.67187-1.625-0.11328-0.44922-0.83984-1.1211-1.2891-1.6797-0.39062 0.50391-1.0039 1.0078-1.0039 1.5664z"/>
  <path d="m393.9 277.09c0.24219 0.5625 0.67969 1.0195 1.2344 1.2852 0 0 0.72656-0.55859 1.3984-1.1211l-1.6797-1.5117c-0.054688 0.44922-1.0625 0.95312-0.95312 1.3477z"/>
  <path d="m304.53 286.27 1.3984 1.625 0.003907-0.003907c0.42187-0.54297 0.75781-1.1484 1.0078-1.7891 0-0.28125-0.55859-0.78516-0.89453-1.1758z"/>
  <path d="m316.9 290.86c-0.33594 0.39062-0.89453 0.83984-1.0078 1.2891-0.11328 0.44922 0.50391 0.89453 1.0078 1.7344 0.50391-0.95312 1.0078-1.457 1.0078-1.9609 0-0.5-0.67188-0.72656-1.0078-1.0625z"/>
 
 </g>
</svg>
