<?xml version="1.0" encoding="UTF-8"?>
<svg width="700pt" height="700pt" version="1.1" viewBox="0 0 700 700" xmlns="http://www.w3.org/2000/svg" xmlns:xlink="http://www.w3.org/1999/xlink">
 <g>
  <path d="m473.2 252.45c-4.5352-1.5117-9.1836-2.5742-13.887-3.8633 0.44922-0.55859 1.0625-1.3438 1.625-2.1836 5.6016-7.0547 10.695-14.113 15.961-21.223 2.2969-3.1367 1.9609-5.1523-1.3438-6.832l-0.003907-0.003906c-2.5391-1.2656-5.2031-2.2578-7.9492-2.9688l-36.734-10.809h-0.003907c-6.2148-1.9961-12.75-2.793-19.262-2.3516l-23.238 2.0703-11.199 0.72656c-0.33594-4.5352-0.67187-8.7344-1.0078-12.992l2.8008-0.95312-0.003906 0.003906c5.1875-1.5156 9.8242-4.5 13.352-8.5938 3.5273-4.0938 5.793-9.1211 6.5273-14.477 0.55859-4.6484 0.55859-9.3516 0-14-0.27734-4.8086-2.043-9.4141-5.0547-13.176-3.0078-3.7617-7.1133-6.4961-11.746-7.8242-6.375-2.0117-13.188-2.1875-19.656-0.50391-16.801 3.5859-27.609 16.406-25.871 32.312 0.36328 10.535 6.3203 20.078 15.625 25.031 4.75 2.0156 9.6562 3.6445 14.672 4.8711 0 3.1367 0.67188 7.1133 1.0625 11.199l-2.4062 0.44922c-10.414 1.1758-20.887 2.0703-31.191 3.6953-7.5469 0.91016-14.945 2.793-22.008 5.6016-12.938 5.6016-25.258 13.105-37.801 19.824-2.6172 1.1641-4.1914 3.8711-3.9219 6.7188v16.801c-8.5117 1.9609-16.801 3.5859-24.863 5.8789-8.2109 1.8984-15.672 6.1836-21.449 12.32-3.5781 3.6641-5.0195 8.9141-3.8086 13.891 2.2383 8.5117 4.9297 16.801 7.7852 25.258v-0.003906c5.9727 17.227 19.676 30.66 37.016 36.289 0.76172 0.46484 1.4414 1.0508 2.0156 1.7344 0.95312 0.83984 1.793 2.1289 2.9102 2.5195h0.003906c9.6836 3.5156 20.414 2.6992 29.457-2.2383 2.4336-1.2773 4.1328-3.6172 4.5898-6.3281 0.20703-1.0117 0.78906-1.9141 1.625-2.5195 8.2109-4.6172 14.641-11.852 18.254-20.555 4.5352-10.875 6.6562-22.605 6.2188-34.383-0.15234-1.6055 0.019532-3.2227 0.50391-4.7578 1.4922-3.6719 1.1406-7.8359-0.95312-11.203-3.2539-5.6484-8.4766-9.8945-14.672-11.926-10.785-3.7344-22.215-5.2383-33.602-4.4258-1.9609 0-2.6875 0-2.8555-2.4062 0-4.0898-0.78516-8.1758-1.3984-12.266-0.24609-0.61328-0.21484-1.3047 0.085938-1.8945 0.30078-0.58984 0.83984-1.0234 1.4805-1.1836 3.9219-1.9023 7.6719-4.0312 11.535-5.9375l26.77-13.328 0.67188 0.67188c19.293 23.074 37.047 47.395 53.145 72.801 0.95312 1.1133 0.95312 2.7539 0 3.8633-5.6016 6.8867-10.863 13.664-16.129 20.664-8.2305 10.863-16.07 22.066-24.359 32.48-6.6094 8.3438-14 16.129-21 24.191-1.9922 1.75-3.0977 4.2969-3.0234 6.9453 0 0.50391-1.0078 1.457-1.7344 1.7344-10.809 4.4258-21.727 8.7344-32.535 13.215l-0.003906 0.003907c-1.8398 0.84766-3.5273 2.0039-4.9844 3.4141-0.85156 0.60938-1.3047 1.6367-1.1758 2.6758 0.12891 1.0391 0.81641 1.9258 1.793 2.3086 1.082 0.63281 2.2852 1.0312 3.5273 1.1758 7.6172 0.83984 15.289 1.5117 22.902 2.4062 7.6172 0.89453 15.793 2.1836 23.688 3.4141l0.003906 0.003906c1.082 0.35156 1.9492 1.1758 2.3516 2.2383 0.78516 3.3594 1.1211 6.832 1.8477 10.191 0 1.1211 1.2305 2.8555 1.9609 2.9102v0.003906c1.3789-0.089844 2.6758-0.69141 3.6406-1.6797 0.79688-0.82422 1.2422-1.9297 1.2305-3.0781 0-5.1523-0.39062-10.359-1.0078-15.512v-0.003906c-0.46875-1.2539-1.5469-2.1836-2.8555-2.4609-10.191-1.3984-20.383-2.5195-30.633-3.6953-3.4727-0.39062-6.9453-0.67188-10.473-1.0078v-0.003906c0.6875-0.75781 1.5547-1.3359 2.5195-1.6797l35.449-14.391c0.98828-0.35547 2.0273-0.54688 3.0781-0.55859 10.359-0.44922 20.777-0.50391 31.137-1.3438 15.625-1.1758 31.191-2.9102 46.816-4.3672v-0.003906c3.5625-0.58594 7.1914-0.58594 10.754 0 5.0234 1.6484 9.9102 3.6914 14.613 6.1055 5.6016 2.5742 11.199 5.6016 17.137 8.2305l-2.4062 1.625c-4.9297 3.0781-9.8555 6.0469-14.672 9.2383-4.8164 3.1914-10.754 7.0547-15.902 11.199l-0.003907 0.003906c-1.1367 0.46484-1.8789 1.5703-1.8789 2.8008 0 1.2266 0.74219 2.3359 1.8789 2.7969 4.9297 2.6328 10.023 4.9297 15.121 7.1133 0.78516 0.33594 2.1289-0.67188 3.2461-1.0625-0.50391-0.89453-0.72656-2.1289-1.457-2.6328-3.2461-2.2383-6.6094-4.2578-10.191-6.5508 1.3438-1.0078 2.6875-2.0703 4.1445-2.9688 6.5508-4.0312 13.16-7.8945 19.656-12.039 3.9141-2.4297 7.6562-5.125 11.203-8.0664 3.0781-2.6328 2.5195-5.1523-1.0625-7h-0.003907c-11.195-5.9961-22.934-10.926-35.055-14.727-2.0664-0.46875-3.7383-1.9727-4.4258-3.9766-2.8008-6.7773-5.6016-13.441-8.625-20.16h0.003907c-5.7148-16.035-12.488-31.676-20.273-46.816-0.30469-0.65625-0.30469-1.4141 0-2.0703 5.0039-8.2227 8.9922-17.023 11.871-26.211 6.2148-16.801 12.266-34.16 18.367-51.297l4.3672-12.152 49.168 13.664 0.003906 0.003906c-0.25391 0.53516-0.53125 1.0586-0.83984 1.5664-5.6758 7.6914-11.273 15.344-16.801 22.961-0.70312 0.75781-1.6602 1.2383-2.6875 1.3438-3.5859 0.44922-7.2812 0.44922-10.863 1.0078h-0.003907c-8.1406 0.60156-16.137 2.4883-23.688 5.6016-3.168 1.4883-4.8672 4.9844-4.0859 8.3984 2.0703 11.816 3.8086 23.742 6.2734 35.449 2.7422 12.77 6.0469 25.426 9.2969 38.078h-0.003907c0.48828 1.7031 1.6641 3.125 3.25 3.9219 8.8125 3.2773 18.512 3.2773 27.328 0 1.5508-0.625 2.7969-1.8281 3.4727-3.3633 1.6797-4.4805 3.0781-9.0703 4.3125-13.719 5.6016-20.273 10.473-40.543 15.793-60.816h-0.003906c1.0938-2.4023 1.0312-5.1758-0.16797-7.5312-1.1953-2.3555-3.4023-4.0352-5.9922-4.5625zm-226.41 82.543c-0.61719-4.5938-1.0625-9.2969-1.625-13.945h0.44922c2.4062 6.6641 4.8164 13.383 7.2812 20.047l-0.003907 0.003906c-3.1953-0.39062-5.7148-2.9102-6.1016-6.1055zm17.414 3.4141c-0.70312 1.5703-1.4883 3.1055-2.3516 4.5938-1.1758 2.2969-1.2305 2.2969-4.1445 1.3438 2.4648-4.5938 5.1523-8.8477 7.2227-13.383 2.0703-4.5352 3.5273-9.2969 5.1523-13.719l0.003906-0.003907c-0.875 7.3164-2.8555 14.453-5.8828 21.168zm1.3984 10.078 31.809-2.8555c-10.805 3.6992-20.828 7.1719-31.805 2.8594zm11.594-23.684h0.50391c3.9766 6.3828 7.9531 12.77 11.984 19.098-1.9023 0.78516-3.3047 0.44922-4.4258-2.0703-2.4609-5.8281-5.207-11.43-8.0625-17.027zm-5.1523 29.566 25.199-1.7344c-7.875 3.5508-16.773 4.1055-25.031 1.5664zm25.594-13.496c-0.39062 1.0078-1.9609 1.625-2.9688 2.4062l-0.67188-0.89453c3.9805-9.6992 6.5469-19.922 7.6172-30.352 0.30859 9.7031-0.98047 19.387-3.8086 28.672zm16.801-8.3438-3.6406-19.43c3.2422 5.8359 5.1523 12.32 5.5977 18.98zm8.1758-17.078v-11.816c1.9688 3.6016 2.1172 7.9219 0.39062 11.648zm1.3984-21.559v-0.003906c-12.031 4.8438-24.527 8.4297-37.297 10.699-14.465 2.7969-29.32 2.9688-43.848 0.50391-5.957-1.0312-11.66-3.1992-16.801-6.3867-0.77344-0.66797-1.4492-1.4414-2.0156-2.2969 5.0977 1.9023 9.9688 4.2578 15.121 5.6016 11.891 3.0469 24.281 3.6211 36.398 1.6797 12.938-1.8477 25.703-4.6484 38.473-7.4492 4.0117-1.2031 7.9102-2.7578 11.648-4.6445l0.61719 0.44922v-0.003907c-0.58594 0.61328-1.2227 1.1758-1.9062 1.6797zm-33.602-3.9219c2.6641-0.94922 4.2031-3.7383 3.5859-6.4961-0.75-2.6484-3.3164-4.3555-6.0469-4.0312h-8.0078v-17.809c13.188-1.3867 26.496 0.96484 38.414 6.7734 2.3516 1.5781 4.4805 3.4609 6.3281 5.6016 2.5742 3 3.3047 7.168 1.9062 10.863-0.70312 1.6758-2.0586 2.9883-3.7539 3.6406-5.9922 2.5547-12.145 4.707-18.426 6.4414-15.195 3.9023-30.844 5.7852-46.535 5.5977-7.6328-0.10547-15.195-1.4492-22.398-3.9766-2.6875-0.99609-5.2031-2.4141-7.4492-4.1992-1.8477-1.168-3.0703-3.1094-3.3281-5.2812-0.26172-2.168 0.46875-4.3438 1.9844-5.918 2.8281-3.3711 6.1289-6.3125 9.8008-8.7344 8.832-5.3242 18.742-8.5938 29.008-9.5781l5.6016-0.67188c0 1.8477 0.33594 3.5273 0.44922 5.207 0 4.3125 0.50391 8.625 0.50391 12.938 0 0.78516-0.95312 1.8477-1.7344 2.4062-1.6797 1.0625-3.6953 1.7344-5.2656 2.9102l-0.003906 0.003906c-1.418 0.85547-2.2031 2.4688-1.9961 4.1172 0.20312 1.6445 1.3594 3.0156 2.9492 3.5 8.4961 2.1562 17.5 0.91016 25.09-3.4727zm119.51 81.254c-31.289 4.707-62.844 7.4023-94.473 8.0664l10.191-11.199 6.5508 8.3984 10.023-10.809 3.8633 3.4727c6.5508 5.6016 7.2812 5.6016 12.375-1.0625 0.89453-1.1211 1.7344-2.3516 2.7422-3.6953 1.9023 1.457 3.6953 2.9688 5.6016 4.3672h0.003906c1.1055 0.75781 2.2656 1.4297 3.4727 2.0156 4.1445 2.1289 4.1992 2.1289 7-1.3984 1.793-2.1836 3.4141-4.4258 5.2656-6.832 3.5273 2.8008 7.1133 5.6016 11.199 8.5664l7.168-10.754zm-8.1211-17.977c-3.1914 3.0781-68.938 9.8008-71.961 7.3906zm5.207-128.07c-0.55859 0.80078-1.4375 1.3125-2.4062 1.3984-7.6719 0.55859-15.344 1.1211-23.07 1.457-12.098 0.50391-24.191 0.72656-36.289 1.2305-3.4727 0-6.8867 0.83984-10.305 1.0625v0.003906c-1.0078 0.0625-1.9961-0.27734-2.7461-0.95312-2.9102-3.0781-5.6016-6.2734-8.7344-9.8555l16.801 6.7188 4.8711-11.648c4.8711 2.1289 5.9375 7.6172 10.246 10.414l5.6016-11.535 10.641 10.531 7-11.762c3.3594 4.0312 6.4961 7.7852 9.8008 11.648l8.6797-11.199 5.6016 10.473 8.3984-10.359 0.39062 0.28125c-1.457 4.0859-2.8555 8.1172-4.4805 12.094zm45.754 113.68c-6.4375 1.9648-13.246 2.4062-19.883 1.2891-3.9766-0.95312-4.3125-1.2305-4.5352-5.6016 9.4414 2.0703 19.246 1.8008 28.559-0.78125 0.11719 2.5039-1.6641 4.6992-4.1406 5.0938zm17.133-64.457c-2.7422 0.67187-3.2461 2.2969-3.3047 4.8164 0 7.6719-0.67188 15.344-1.1211 23.016h0.003906c-0.0625 1.1758-0.42969 2.3164-1.0664 3.3047-0.95312-9.7422 0.33594-19.434 0.33594-29.344l-12.039 2.5742c1.625 9.5195 3.2461 19.152 4.9297 28.727 0.72656 3.9766 1.7344 7.8945 2.3516 11.871v0.003907c0.19531 1.6953 0.19531 3.4023 0 5.0977h-0.72656c-2.8008-15.121-5.6016-30.184-8.457-45.695-0.37891 0.50391-0.66406 1.0703-0.83984 1.6797-1.1211 13.777-2.2227 27.551-3.3047 41.328 0 2.6875 0 5.6016-0.67188 8.0625 0 0.72656-1.2891 1.2891-1.9609 1.9023l-0.95313-0.72656c1.6797-17.137 3.4141-34.273 5.0977-51.465h-15.68c2.4648 17.359 4.8711 34.383 7.3359 51.465-1.793 0.89453-2.2383 0-2.4648-1.457-0.67188-5.6016-1.457-11.594-2.2383-17.414-1.5117-10.359-3.0234-20.719-4.6484-31.023 0-0.89453-1.2305-1.625-1.8477-2.4062l-0.83984 0.39062c-1.625 8.3984-3.3047 16.801-4.9297 25.258h-0.95312v-0.003906c0.50391-8.6055 1.7617-17.148 3.7539-25.535-9.0703-2.2383-9.9688-2.6328-11.703-5.6016 9.6172 3.4883 19.887 4.7891 30.07 3.8086 10.227-0.73047 20.297-2.918 29.906-6.4961l0.55859 1.0625v0.003906c-1.3711 1.1719-2.9219 2.1172-4.5938 2.7969zm1.457-8.3984c-4.7344 1.8867-9.6523 3.2734-14.672 4.1445-10.078 0.95312-20.273 1.1758-30.465 1.1758-3.3242-0.31641-6.5781-1.168-9.6289-2.5195-2.9102-1.0625-3.2461-3.8633-3.4141-6.4414-0.16797-2.5742 2.0703-3.1914 3.8633-3.5859 7.6172-1.5664 15.23-2.9688 22.848-4.3125l-0.003906 0.003906c1.8555-0.26172 3.7266-0.41016 5.6016-0.44922-1.0938 3.0234-4.0117 4.9922-7.2227 4.8711-2.3867 0.046875-4.7461 0.46094-7 1.2344-1.1758 0.39062-2.8008 1.8477-2.7422 2.8008h-0.003906c0.1875 1.4492 1.0938 2.7109 2.4102 3.3594 3.0039 0.84766 6.1172 1.2227 9.2383 1.1172 3.0508-0.33594 6.0586-1.0117 8.9609-2.0156 4.3125-1.1758 4.7617-2.6328 2.2969-6.2734 4.1445-6.6094 2.1836-6.1055 11.199-4.8711 2.9375 0.45312 5.8008 1.3008 8.5117 2.5234 1.5664 0.72656 3.6406 2.1836 3.9219 3.5273h-0.003906c0.27344 2.5117-1.2773 4.8594-3.6953 5.5977z"/>
  <path d="m378.34 221.93c0 0.83984 1.0625 2.1289 1.5664 2.0703 0.50391-0.054688 1.7344-1.0078 3.4141-2.1289-1.7344-0.89453-2.6328-1.6797-3.5273-1.7344-0.89453-0.058594-1.5078 1.2305-1.4531 1.793z"/>
  <path d="m346.02 223.55c0.39453 0.94531 0.94141 1.8164 1.625 2.5781l2.7422-2.0703v-0.003906c-0.87109-0.88672-1.8711-1.6406-2.9648-2.2383 0 0-1.5156 1.2305-1.4023 1.7344z"/>
  <path d="m395.47 219.86c-0.44922 0.78516-1.2305 1.6797-1.1758 2.4648 0.054687 0.78516 1.0078 1.5117 1.5664 2.2383 0.61719-0.61719 1.793-1.2305 1.793-1.8477-0.21484-1.0352-0.65234-2.0078-1.2891-2.8555z"/>
  <path d="m362.15 222.94c0 0.78516 0.95312 1.5117 1.457 2.2383 0.61719-0.55859 1.5664-1.1758 1.625-1.793 0.054687-0.61719-0.67188-1.625-1.457-3.1914-0.89844 1.3438-1.7383 2.1289-1.625 2.7461z"/>
  <path d="m384.61 368.54c-0.87891 0.36328-1.6367 0.96484-2.1836 1.7383 0 0 0.83984 1.1211 1.625 2.1836h-0.003906c0.80469-0.77734 1.5195-1.6406 2.1289-2.5781 0 0-1.1758-1.4531-1.5664-1.3438z"/>
  <path d="m401.13 369.6c0.91797-0.19531 1.8047-0.51562 2.6328-0.95312v-0.89453c-0.67188-0.33594-1.3984-1.0625-1.9609-0.95312-0.55859 0.11328-1.3984 0.95312-2.1289 1.457 0.72656 0.50391 1.0078 1.3438 1.457 1.3438z"/>
  <path d="m343.39 371.95c-0.73828 0.44922-1.3242 1.1133-1.6797 1.9023 0 0.39062 0.61719 1.0625 1.3438 2.1836 0.73437-0.94141 1.375-1.9531 1.9062-3.0234 0 0-1.2891-1.1758-1.5703-1.0625z"/>
  <path d="m322.45 374.75s0.83984 0.95312 1.3438 1.457v-0.003907c0.75-0.58984 1.4102-1.2891 1.9609-2.0703 0 0-0.61719-1.0625-1.2891-2.1836-0.78125 0.84766-1.4609 1.7891-2.0156 2.8008z"/>
  <path d="m364.17 370.27c-0.78906 0.52344-1.457 1.2109-1.9609 2.0156 0 0 0.61719 1.0078 1.3984 2.0703h0.003906c0.73438-0.85938 1.3711-1.8008 1.9023-2.8008 0 0-1.2305-1.3984-1.3438-1.2852z"/>
 
 </g>
</svg>
