<?xml version="1.0" encoding="UTF-8"?>
<svg width="700pt" height="700pt" class="wsvg" id="hwsvg" version="1.1" viewBox="0 0 700 700" xmlns="http://www.w3.org/2000/svg" xmlns:xlink="http://www.w3.org/1999/xlink">
 
 <g>
  <path d="m463.01 221.48c-1.1367-5.5-3.7305-10.59-7.5156-14.742-3.7852-4.1484-8.6172-7.1992-13.988-8.8359-3.9219-1.3984-8.2305-2.1289-10.359 3.1367-0.125 0.25391-0.32031 0.46875-0.55859 0.61719-3.8633 3.6406-7.5039 7.5586-11.703 10.809h-0.003906c-10.477 9.1484-24.91 12.297-38.246 8.3438-8.5508-2.4375-16.027-7.6875-21.227-14.898-1.3477-1.5859-2.2031-3.5312-2.4609-5.5977 0.019532-2.1797-0.9375-4.25-2.6055-5.6523-1.6719-1.3984-3.8789-1.9727-6.0195-1.5703h-2.2422c-0.67188-2.2852-2.1172-4.2617-4.0859-5.6016-2.5625-1.9883-5.0117-4.1211-7.3359-6.3828 3.0039-3.4688 4.9844-7.707 5.7188-12.238 0.73047-4.5273 0.18359-9.1719-1.5742-13.41-3.9219-9.7422-12.375-12.039-21.727-12.602h-0.003907c0.042969-0.55859 0.042969-1.1211 0-1.6797 0.33594-7.6719-1.0625-12.543-7.7852-15.961h0.003906c-3.0586-1.3164-6.5625-1.0664-9.4023 0.67188-2.8398 1.7344-4.6602 4.7422-4.8789 8.0664-0.34375 5.3555 1.707 10.586 5.6016 14.277-5.2812 3.9609-8.3594 10.199-8.2891 16.801-0.50391 6.5234 2.3438 12.852 7.5586 16.801-1.0078 1.6797-1.9609 3.0781-2.6875 4.5938-0.72656 1.5117-1.5117 1.6797-3.0781 1.1758-8.5586-3.0664-17.633-4.4375-26.715-4.0352-0.94922-0.046875-1.8828 0.25-2.6289 0.83984-0.97656 1.2695-1.8398 2.6172-2.5781 4.0352-5.4922 8.0703-8.6172 17.516-9.0156 27.27-0.30078 7.375-0.14844 14.762 0.44922 22.121 1.5977 11.16 5.8398 21.781 12.375 30.969 3.1914 5.0391 3.2461 5.0977-0.78516 9.6875-6.8203 7.8672-12.965 16.297-18.367 25.199-9.3477 14.84-12.523 32.746-8.8477 49.898 0.82812 5.3477 3.0078 10.395 6.3281 14.672 0.60547 0.55078 1.4219 0.81641 2.2383 0.72656 4.4805-0.95312 8.9609-2.0703 13.441-3.0234 0.75-0.085938 1.4961 0.18359 2.0156 0.72656 4.2578 6.1055 8.457 12.32 12.656 18.48 4.1992 6.1602 3.5859 5.6016 0 11.199-5.0977 8.457-9.9102 16.801-14.785 25.535-0.84375 1.0742-1.1758 2.4609-0.90625 3.7969 0.26953 1.3359 1.1133 2.4883 2.3086 3.1484 4.5352 2.4648 9.2969 4.4805 13.945 6.6094h-0.003907c0.5 0.30078 1.1133 0.34766 1.6562 0.12891 0.53906-0.22266 0.94531-0.68359 1.0898-1.25 0.64453-1.082 0.29297-2.4844-0.78516-3.1367-2.9102-1.625-5.6016-3.3594-8.5664-5.207-0.68359-0.58203-1.0391-1.4609-0.95312-2.3516 0.53125-1.957 1.3008-3.8359 2.2969-5.6016 2.7422-4.8164 5.6016-9.4062 8.5117-14.168 2.1836-3.7539 4.2578-7.5586 6.3281-11.199 0.96875-1.5391 0.73438-3.543-0.55859-4.8164-2.0156-2.4062-3.9766-4.8164-5.6016-7.3906-3.9219-5.2656-7.3906-10.863-11.09-16.465 3.4141-0.78516 6.4414-1.3984 9.4648-2.2383l33.039-8.9609c0.95313 0 1.6797-0.78516 2.5195 0.50391 6.5508 10.137 13.215 20.16 19.77 30.352 0.39062 0.91016 0.39062 1.9453 0 2.8555-1.625 3.7539-3.4141 7.4492-5.2656 11.199-3.8086 7.5039-7.7266 15.008-11.48 22.398l0.003907 0.003906c-0.26953 0.75391-0.14453 1.5938 0.33594 2.2383 4.8203 3.2031 10.195 5.4805 15.848 6.7188 0.83984 0 1.9609-0.61719 2.9102-0.95312-0.39063-1.0625-0.50391-2.4648-1.2305-3.0234v0.003906c-1.6367-1.0586-3.3633-1.9766-5.1523-2.7461l-6.1055-2.9102c5.0977-9.6875 9.8555-19.152 14.895-28.449h0.003906c2.4531-4.0156 2.207-9.1172-0.61719-12.879-4.8711-7.7852-9.5195-15.734-14.281-23.633l-2.7422-4.7031 9.9102-3.3594-1.1758-0.83984c-1.1758-0.78516-2.2969-1.625-3.4727-2.3516v-0.003906c-9.3711-5.6133-17.57-12.992-24.133-21.727-3.9766-5.6016-7.3906-11.199-11.199-17.246l-0.003906-0.003906c-5.4492-9.4023-9.7539-19.422-12.82-29.848 0-0.44922-0.39063-1.0625 0-1.3984 0.72656-1.6602 1.5664-3.2695 2.5195-4.8164 7.0312-10.758 15.137-20.777 24.191-29.902 0.95312-0.95312 1.9609-1.8477 3.0781-2.8555 0.89453 2.0156 1.625 3.8086 2.5195 5.6016v-0.003906c2.8789 6.4648 8.2852 11.465 14.953 13.832 6.4609 2.5234 13.43 3.4648 20.328 2.7461 2.2227-0.54687 4.5352 0.49219 5.6016 2.5195 1.9844 3.2852 5.1836 5.6602 8.9023 6.6055 8.1562 1.6914 16.625-0.66406 22.734-6.3281 0.68359-0.75781 1.8008-0.94141 2.6914-0.44531 8.1758 3 16.996 3.8281 25.59 2.4062 12.406-1.9258 24.133-6.9297 34.105-14.559 4.5742-3.0977 8.6562-6.875 12.094-11.199 1.2461-2.5117 2.7852-4.8633 4.5938-7 2.4258-1.9336 3.4258-5.1523 2.5195-8.1211zm-94.414-2.4062c2.2383 1.3984 4.6484 2.5195 7.2812 3.9219l-0.003906-0.003906c-3.1797 1.7148-5.8047 4.3008-7.5703 7.457-1.7656 3.1523-2.5977 6.7422-2.3984 10.352h-0.61719c-2.0156-3.4141-4.0898-6.832-6.1055-10.305h0.003906c-0.16406-0.43359-0.16406-0.91016 0-1.3438 1.0742-3.8594 3.3008-7.2969 6.3828-9.8555 0.37109-0.43359 0.89844-0.70312 1.4648-0.74609 0.57031-0.042969 1.1328 0.14453 1.5625 0.51953zm-9.0742-7.7305 5.6016 6.2734c-3.6484 2.3203-6.332 5.8789-7.5625 10.023-1.2891-3.4727-2.4062-6.3828-3.3594-9.3516-0.12891-0.72266 0.035156-1.4688 0.44922-2.0742 1.625-1.6797 3.3047-3.4141 4.8711-4.8711zm-6.9453-3.2461c1.0078-0.78516 2.0547-1.5117 3.1367-2.1875l3.2461 4.4805-5.6016 5.6016c-0.55859-1.9023-1.1758-3.9219-1.5664-5.9922h0.003907c-0.085938-0.72656 0.21094-1.4453 0.78125-1.9023zm-46.312 128.24h0.003906c1.9297-0.67969 4.0781-0.25 5.5977 1.1211 3.1367 2.4062 6.6094 4.4258 9.9102 6.5508h0.003906c0.61328 0.32813 1.1602 0.76563 1.6211 1.2891-2.8008 0.72656-4.9297-1.0625-7.168-2.0703-2.2383-1.0078-4.4805-2.4062-6.832-3.6953-0.39063 3.0781-0.72656 6.0469-1.1211 9.3516-2.2969-2.0703-4.2578-3.9219-6.2734-5.6016h0.003906c-0.75391-0.62891-1.5586-1.1875-2.4062-1.6797-0.4375 0.89844-0.79687 1.8359-1.0664 2.7969-0.44922 2.2969-0.83984 4.6484-1.2891 7.4492-2.6328-2.2383-4.9844-4.3125-7.3906-6.2734-0.84375-0.53906-1.7266-1.0234-2.6328-1.4531-0.51953 0.91406-0.91406 1.8906-1.1758 2.9102-0.55859 3.0781-0.95312 6.2148-1.5117 9.9688-2.5742-2.4062-4.7031-4.4805-7-6.4414-3.6406-3.1914-3.7539-3.1367-5.0391 1.2891-0.61719 2.0703-1.2891 4.0898-2.0703 6.5508l-3.6406-2.8555c-1.1758-0.89453-2.2969-1.8477-3.5273-2.6328-1.2305-0.78516-2.9102-0.55859-3.2461 1.5117-0.33594 2.0703-0.78516 4.9297-1.2305 8.0078-2.0703-1.625-3.8633-2.8555-5.6016-4.3125-4.3672-3.8633-4.5352-3.8633-6.6641 1.5664-0.67188 1.6797-1.2305 3.4141-1.793 5.0977h-0.61719c-1.0078-2.9688-2.0156-5.6016-3.0781-9.0703 10.02-2.9102 19.371-6.2148 29.062-9.0703 12.039-3.5273 24.191-6.6641 36.176-10.305zm-2.1289-119.28c-3.9766-2.2969-7.7852-4.9844-11.93-6.9453l0.003906 0.003906c-4.2031-1.8516-8.5234-3.4219-12.934-4.707-5.0391-1.5664-10.191-2.9102-15.344-4.1445v0.003906c-1.8633-0.20703-3.7422-0.20703-5.6016 0l6.9453-14.449h0.78516l3.1367 10.863 10.473-8.793c0.33594 4.4258 0.61719 8.3438 0.89453 12.543l14.281-8.1758v15.062l15.008-8.3438c-0.55859 2.7422-1.0078 5.0391-1.5664 7.3359s-1.3438 4.6484-2.0156 6.9453l0.39062 0.39062 11.984-6.4414c0.39062 1.1211 0.39062 1.1211-1.2891 4.1445l-2.7422 4.7617 11.199-2.5742v0.50391l-13.328 9.5195h-0.003906c-2.168-3.1094-5.0234-5.6797-8.3438-7.5039zm29.793 36.062 0.003907 0.003906c-4.7305-0.47656-9.2812-2.0703-13.273-4.6484-4.4062-3.25-7.7266-7.7617-9.5195-12.938-1.457-3.9219-1.3984-4.0898 1.793-6.6094 5.2656-4.1992 10.695-8.1758 16.297-12.434 7.7852 11.199 11.199 24.359 16.129 36.566l-0.003907 0.003906c-3.7695 0.74609-7.6484 0.76562-11.422 0.058594zm15.457-1.1172c-1.3438-3.3594-2.5742-6.6641-3.9219-9.9688l-8.0625-20.215c-2.6797-6.082-6.9062-11.355-12.262-15.289-3.7539-3.0234-7.4492-6.1602-11.199-8.9609-3.7539-2.8008-7.9531-5.0977-12.152-7.7266 0.89062-1.3633 1.8633-2.6719 2.9102-3.918 0.47266-0.32812 1.0703-0.43359 1.625-0.28125 8.7227 2.8398 18.242 1.8633 26.207-2.6875 2.8281 2.2578 4.9297 5.293 6.0469 8.7344 0.22656 1.2266 0.8125 2.3555 1.6836 3.25 0.9375 0.73047 1.2188 2.0234 0.67188 3.0781-0.98828 2.2188-0.84375 4.7773 0.39062 6.8672 1.2344 2.0898 3.4062 3.4531 5.8242 3.6602l2.0703 0.39062v0.003906c2.1211 12.965 7.3906 25.215 15.344 35.672-4.2578 3.8438-9.5195 6.4102-15.176 7.3906zm2.4062 3.6953h0.003907c5.543-1.1602 10.707-3.7031 15.008-7.3906l11.199 8.9609c-5.6016 5.9336-20.383 9.6289-26.207-1.3438zm24.359-4.3125c-2.2969-2.0156-4.4805-4.1992-6.7773-6.2148h0.003906c-1.332-1.1484-1.9688-2.9102-1.6797-4.6484 0.035157-6.2422 3.0273-12.102 8.0664-15.793 1.1797-0.99219 2.7969-1.293 4.2539-0.78125 1.9609 0.67188 4.0312 1.0078 6.2148 1.5664-6.6875 7.668-9.2734 18.094-6.9414 28-1.1016-0.53906-2.1523-1.1758-3.1367-1.9023zm6.832 3.8633h0.003906c-0.69141-0.44531-1.1758-1.1523-1.3438-1.957-2.2773-9.168-0.027344-18.867 6.0469-26.098 0.94922-0.83984 2.1523-1.332 3.418-1.3984 1.8633-0.10547 3.7344-0.10547 5.5977 0-4.9844 11.199-2.9102 21.953 0.89453 32.93l0.003906-0.003906c-5.0352-0.13281-10-1.2344-14.617-3.2461zm17.863 3.4141c-0.72656 0-1.6797-1.1211-1.9023-1.9023l0.003906 0.003907c-2.2109-6.7891-3.1055-13.934-2.6328-21.059 0.37109-2.7344 1.0508-5.4219 2.0156-8.0078 0.59766-1.6641 2.0586-2.8672 3.8086-3.1367 2.7422-0.67188 5.6016-1.7344 8.1211-2.6875-1.6133 6.0234-1.4805 12.379 0.38281 18.328 1.8672 5.9492 5.3828 11.246 10.145 15.273-6.3594 2.4297-13.133 3.5938-19.938 3.4141zm22.848-4.4805 0.003906 0.003906c-0.6875 0.21094-1.4336 0.085937-2.0156-0.33594-2.2734-2.2227-4.2852-4.7031-5.9922-7.3906-4.25-7.2266-5.5547-15.809-3.6406-23.969 0.30469-1.0312 0.95703-1.9219 1.8477-2.5195 2.0156-1.3984 4.1992-2.6328 6.3281-3.8633 0.72656 12.387 7.7109 23.555 18.539 29.621-4.5781 3.6055-9.6523 6.5273-15.066 8.6797zm18.199-10.809 0.003906 0.003906c-0.76172 0.36328-1.6445 0.36328-2.4062 0-2.6758-1.5938-5.1719-3.4727-7.4492-5.5977-4.5898-4.8281-7.7812-10.809-9.2383-17.305-0.30469-1.8516-0.45312-3.7266-0.44922-5.6016-0.015624-0.34766 0.10547-0.69141 0.33594-0.94922 2.6328-2.4062 5.6016-4.8164 7.7852-6.9453l-3.8086 10.246 7.8945-1.625-2.2969 10.695 8.5117-0.67188-3.2461 10.809 11.199-4.5352c-1.3438 4.8164-2.293 9.4102-6.832 11.707zm14.895-16.801 0.007813 0.003907c-4.5234-0.074219-8.8242-1.9727-11.93-5.2617-4.6016-3.832-7.9727-8.9336-9.6875-14.672-0.16406-0.45703-0.29297-0.92578-0.39062-1.4023v-1.5117c0-3.6406 1.1758-4.5938 4.3125-3.6406v0.003906c8.4219 2.6758 15.332 8.7734 19.039 16.797 0.84375 2.2773 1.3008 4.6836 1.3438 7.1133 0.28125 1.8477-0.72656 2.7422-2.6875 2.7422z"/>
  <path d="m288.9 200.76c-0.56641-0.12891-1.1562 0.058593-1.5508 0.48438-0.39062 0.42578-0.52734 1.0312-0.35156 1.5859 0.29297 0.89062 1.0039 1.582 1.9023 1.8477 0.83984 0 1.5664-1.1211 2.3516-1.6797v-0.95312h0.003906c-0.69922-0.57031-1.4961-1.0078-2.3555-1.2852z"/>
  <path d="m300.95 209.78c0 0.44922 1.0625 1.2305 1.625 1.8477l2.6328-2.4062c-1.1758-0.83984-2.1289-1.8477-2.3516-1.6797l-0.003906-0.003906c-0.85938 0.52344-1.5273 1.3086-1.9023 2.2422z"/>
  <path d="m273.73 199.08c0.16406 0.86719 0.78516 1.5781 1.625 1.8516 0.72656 0 1.457-0.89453 2.8555-1.8477-1.3438-1.0625-2.1836-2.1289-2.8008-2.0156v-0.003906c-0.84766 0.36719-1.4688 1.1172-1.6797 2.0156z"/>
  <path d="m262.47 196.84c0 0.28125 1.0625 1.457 1.2305 1.3438 0.84375-0.64453 1.6133-1.375 2.2969-2.1836l-2.0703-1.8477c-0.60156 0.82812-1.0938 1.7305-1.457 2.6875z"/>
  <path d="m310.18 215.49c-0.61719 0-1.2891 0.95312-2.3516 1.793 1.0078 0.89453 1.793 1.9023 2.0703 1.793v-0.003907c0.80078-0.34375 1.4141-1.0156 1.6836-1.8477 0.10937-0.50391-0.78516-1.6797-1.4023-1.7344z"/>
  <path d="m305.65 342.61c0.39062-0.61719 1.1758-1.457 1.0078-1.8477s-1.2305-1.2305-1.8477-1.793c-0.44922 0.50391-1.2305 1.1211-1.1758 1.5117 0.26563 0.80078 0.68359 1.5391 1.2305 2.1836z"/>
  <path d="m281.23 348.88c0.39062 0 1.0078-0.83984 1.793-1.5664-0.83984-0.67188-1.5117-1.5117-1.8477-1.3984-0.33594 0.11328-1.457 1.0078-1.457 1.5117 0.22266 0.71094 0.79297 1.2578 1.5117 1.4531z"/>
  <path d="m294.45 344.51c0.33594 0 0.95312-0.55859 1.9023-1.2305-0.95312-0.61719-1.5117-1.2305-2.0703-1.2891-0.55859-0.054688-1.2305 0.89453-1.1758 1.1211 0.24219 0.625 0.72656 1.1289 1.3438 1.3984z"/>
  <path d="m254.8 354.31c0 0.39062 0.67188 0.89453 1.0078 1.3438 0.44922-0.44922 1.1211-0.78516 1.2891-1.2891 0.16797-0.50391-0.44922-0.95313-0.89453-1.8477-0.84375 0.83984-1.4023 1.2891-1.4023 1.793z"/>
  <path d="m267.4 350.79c0.066406 0.53516 0.40625 1.0039 0.89844 1.2305 0.39062 0 0.89453-0.44922 1.3984-0.67188l0.55859-0.95312c-0.55859 0-1.1758-0.67188-1.7344-0.61719-0.55859 0.058593-1.1211 0.61719-1.1211 1.0117z"/>
  <path d="m431.93 233.13c0 0.67188 0.95312 1.3438 1.5117 2.0156l2.5195-1.9609c-1.1211-0.89453-1.8477-1.793-2.5195-1.793-0.75391 0.30078-1.3203 0.94922-1.5117 1.7383z"/>
  <path d="m443.02 240.07c0-0.44922-0.83984-1.0625-1.3438-1.5664-0.61719 0.55859-1.5117 1.0078-1.7344 1.7344-0.22266 0.72656 0.55859 1.2305 1.2305 2.5195 0.95312-1.2852 1.7344-1.957 1.8477-2.6875z"/>
  <path d="m427.95 221.14c-0.33594 0.72656-0.95312 1.457-0.95312 2.1836s0.89453 1.0078 1.3438 1.5117c0.44922-0.55859 1.2305-1.1211 1.2891-1.793 0.054688-0.67188-0.55859-1.2891-0.89453-1.9023z"/>
  <path d="m451.14 211.29c-1.1992-2-3.2812-3.3086-5.6016-3.5273-3.0781 0-4.4805 1.8477-3.5273 4.3125v-0.003907c1.3359 3.1758 3.8164 5.7305 6.9453 7.168 1.2773 0.33984 2.6406 0.070313 3.6953-0.72656 0.64453-0.99609 0.80859-2.2305 0.44922-3.3594-0.44922-1.3828-1.1133-2.6875-1.9609-3.8633z"/>
 
 </g>
</svg>
