<?xml version="1.0" encoding="UTF-8"?>
<svg width="700pt" height="700pt" class="wsvg" id="hwsvg3" version="1.1" viewBox="0 0 700 700" xmlns="http://www.w3.org/2000/svg" xmlns:xlink="http://www.w3.org/1999/xlink">
 
 <g>
  <path d="m311.11 134.56h77.777c2 0 3.8516-1.0664 4.8516-2.8008 1-1.7344 1-3.8672 0-5.6016l-38.891-67.355c-2-3.4688-7.6992-3.4688-9.7031 0l-38.887 67.359c-1 1.7344-1 3.8672 0 5.6016 1 1.7305 2.8477 2.7969 4.8516 2.7969zm38.887-61.758 29.188 50.559h-58.375z"/>
  <path d="m191.61 121.61c-1.418 1.418-1.9688 3.4766-1.4492 5.4102l20.129 75.129c0.51953 1.9297 2.0273 3.4414 3.9609 3.9609 0.48047 0.13281 0.96875 0.19141 1.4492 0.19141 1.4648 0 2.8945-0.57422 3.9609-1.6406l55-55c1.418-1.418 1.9688-3.4766 1.4492-5.4102-0.51953-1.9297-2.0273-3.4414-3.9609-3.9609l-75.129-20.129c-1.9531-0.53125-4.0039 0.03125-5.4102 1.4492zm68.27 26.988-41.285 41.285-15.109-56.395z"/>
  <path d="m126 280c0 2 1.0664 3.8516 2.8008 4.8516l67.359 38.887c0.86328 0.49609 1.832 0.75 2.8008 0.75s1.9375-0.25 2.8008-0.75c1.7344-1 2.8008-2.8477 2.8008-4.8516l-0.003906-77.773c0-2-1.0664-3.8516-2.8008-4.8516-1.7266-0.99609-3.8711-0.99609-5.6016 0l-67.355 38.887c-1.7344 1-2.8008 2.8516-2.8008 4.8516zm67.359-29.188v58.375l-50.559-29.188z"/>
  <path d="m214.25 353.89c-1.9297 0.51953-3.4414 2.0273-3.9609 3.9609l-20.129 75.129c-0.51953 1.9297 0.03125 3.9922 1.4492 5.4102 1.0664 1.0664 2.4922 1.6406 3.9609 1.6406 0.48047 0 0.96875-0.058594 1.4492-0.19141l75.129-20.129c1.9297-0.51953 3.4414-2.0273 3.9609-3.9609 0.51953-1.9297-0.03125-3.9922-1.4492-5.4102l-55-55c-1.418-1.418-3.4844-1.9805-5.4102-1.4492zm-10.762 72.617 15.109-56.395 41.285 41.285z"/>
  <path d="m388.89 425.44h-77.773c-2 0-3.8516 1.0664-4.8516 2.8008-1 1.7344-1 3.8672 0 5.6016l38.887 67.355c1 1.7344 2.8516 2.8008 4.8516 2.8008s3.8516-1.0664 4.8516-2.8008l38.887-67.359c1-1.7344 1-3.8672 0-5.6016-1-1.7305-2.8477-2.7969-4.8516-2.7969zm-38.887 61.758-29.188-50.559h58.375z"/>
  <path d="m504.43 440.03c1.4648 0 2.8984-0.57422 3.9609-1.6406 1.418-1.418 1.9688-3.4766 1.4492-5.4102l-20.129-75.129c-0.51953-1.9297-2.0273-3.4414-3.9609-3.9609-1.9531-0.53125-3.9922 0.03125-5.4102 1.4492l-55 55c-1.418 1.418-1.9688 3.4766-1.4492 5.4102 0.51953 1.9297 2.0273 3.4414 3.9609 3.9609l75.129 20.129c0.48047 0.13281 0.96484 0.19141 1.4492 0.19141zm-64.312-28.629 41.285-41.285 15.109 56.395z"/>
  <path d="m571.2 275.15-67.359-38.887c-1.7266-0.99609-3.8711-0.99609-5.6016 0-1.7344 1-2.8008 2.8477-2.8008 4.8516v77.777c0 2 1.0664 3.8516 2.8008 4.8516 0.86328 0.49609 1.832 0.75 2.8008 0.75s1.9375-0.25 2.8008-0.75l67.359-38.891c1.7344-1 2.8008-2.8516 2.8008-4.8516s-1.0664-3.8516-2.8008-4.8516zm-64.559 34.039v-58.375l50.559 29.188z"/>
  <path d="m508.39 121.61c-1.418-1.418-3.4609-1.9805-5.4102-1.4492l-75.129 20.129c-1.9297 0.51953-3.4414 2.0273-3.9609 3.9609-0.51953 1.9297 0.03125 3.9922 1.4492 5.4102l55 55c1.0664 1.0664 2.4922 1.6406 3.9609 1.6406 0.48047 0 0.97266-0.058593 1.4492-0.19141 1.9297-0.51953 3.4414-2.0273 3.9609-3.9609l20.129-75.129c0.51953-1.9336-0.03125-3.9961-1.4492-5.4102zm-26.988 68.27-41.285-41.285 56.395-15.109z"/>
  <path d="m223.98 280c0 69.484 56.531 126.02 126.02 126.02s126.02-56.531 126.02-126.02-56.531-126.02-126.02-126.02-126.02 56.531-126.02 126.02zm126.02-114.82c63.312 0 114.82 51.504 114.82 114.82s-51.504 114.82-114.82 114.82-114.82-51.504-114.82-114.82 51.504-114.82 114.82-114.82z"/>
  <path d="m350 362.64c45.559 0 82.629-37.062 82.629-82.621 0-45.562-37.07-82.629-82.629-82.629s-82.629 37.066-82.629 82.629c0 45.559 37.07 82.621 82.629 82.621zm0-154.05c39.387 0 71.426 32.043 71.426 71.426 0 39.379-32.043 71.422-71.426 71.422-39.387 0-71.426-32.043-71.426-71.422 0-39.383 32.039-71.426 71.426-71.426z"/>
  <path d="m350 316.11c19.91 0 36.109-16.199 36.109-36.109s-16.199-36.109-36.109-36.109-36.109 16.199-36.109 36.109 16.199 36.109 36.109 36.109zm0-61.02c13.738 0 24.91 11.172 24.91 24.91s-11.172 24.91-24.91 24.91-24.91-11.172-24.91-24.91 11.172-24.91 24.91-24.91z"/>
  
 </g>
</svg>
