<?xml version="1.0" encoding="UTF-8"?>
<svg width="700pt" height="700pt" version="1.1" viewBox="0 0 700 700" xmlns="http://www.w3.org/2000/svg" xmlns:xlink="http://www.w3.org/1999/xlink">
 <defs>
  <style>
  path{
   fill: #fff;
  }
  </style>
 </defs>
 <g>
  <path d="m225.96 240.59c0 18.852-15.281 34.133-34.137 34.133-18.852 0-34.133-15.281-34.133-34.133 0-18.855 15.281-34.137 34.133-34.137 18.855 0 34.137 15.281 34.137 34.137"/>
  <path d="m254.88 74.398c0.12109 0 0.25 0 0.38281-0.023438 16.406-1.6094 33.535-2.8125 50.891-3.543 2.1094-0.085937 3.75-1.8711 3.6641-3.9922-0.085938-2.1094-1.9023-3.75-3.9922-3.6641-17.5 0.74219-34.77 1.9453-51.32 3.5781-2.1016 0.20703-3.6406 2.0781-3.4336 4.1875 0.19922 1.9805 1.8633 3.457 3.8086 3.457z"/>
  <path d="m306.24 101.39c-17.664 0.74219-35.066 1.957-51.734 3.5977-2.1016 0.20703-3.6406 2.0781-3.4336 4.1875 0.19531 1.9805 1.8594 3.457 3.8047 3.457 0.12109 0 0.25 0 0.38281-0.023437 16.527-1.6289 33.785-2.8203 51.309-3.5664 2.1094-0.085938 3.75-1.8711 3.6641-3.9805-0.097657-2.1289-1.9023-3.75-3.9922-3.6719z"/>
  <path d="m440.17 112.23v-46.199c0-3.8516-2.8555-7.1211-6.6719-7.6016-18.297-2.3086-38.926-3.5977-60.758-3.5977-5.1719 0-10.281 0.078125-15.312 0.21875-4.1328 0.12109-7.4258 3.5234-7.4258 7.6562v46.309c0 4.3203 3.5664 7.7656 7.875 7.6445 4.8789-0.13281 9.832-0.20703 14.852-0.20703 21.086 0 41.059 1.2148 58.875 3.3672 4.5625 0.55859 8.5664-3.0078 8.5664-7.5898z"/>
  <path d="m195.02 455.91c-1.7383-1.2031-4.125-0.77734-5.3281 0.96094l-16.242 23.398c-1.2031 1.7383-0.77734 4.125 0.96094 5.3281 0.66797 0.46094 1.4219 0.67969 2.1758 0.67969 1.2148 0 2.4062-0.57031 3.1484-1.6406l16.242-23.395c1.207-1.7422 0.78125-4.1289-0.95703-5.332z"/>
  <path d="m152.16 378.55-28.449 1.3789c-2.1094 0.097657-3.7422 1.8906-3.6406 4.0156 0.097656 2.0469 1.793 3.6406 3.8164 3.6406h0.1875l28.449-1.3789c2.1094-0.097656 3.7422-1.8906 3.6406-4.0156-0.10156-2.1094-1.8633-3.7617-4.0039-3.6406z"/>
  <path d="m566.57 369.54c-1.5547-1.4336-3.9688-1.3438-5.4141 0.19531-1.4336 1.5547-1.3438 3.9688 0.19531 5.4141l20.879 19.371c0.73438 0.67969 1.6719 1.0156 2.6016 1.0156 1.0273 0 2.0547-0.41406 2.8125-1.2266 1.4336-1.5547 1.3438-3.9688-0.19531-5.4141z"/>
  <path d="m482.7 397.82c-2.1211-0.17578-3.9688 1.3555-4.168 3.457l-2.6484 28.359c-0.19531 2.1016 1.3555 3.9688 3.457 4.168 0.12109 0.011718 0.24219 0.011718 0.35938 0.011718 1.957 0 3.6211-1.4883 3.8047-3.4688l2.6484-28.359c0.20312-2.1016-1.3398-3.9727-3.4531-4.168z"/>
  <path d="m400.38 455.19c-6.375-9.6484-10.148-20.848-10.883-32.398-0.72266-11.309-4.1016-22.488-9.7656-32.297l-36.816-63.766c-2.4609-4.2656-6.4414-7.3164-11.211-8.5859s-9.7461-0.60156-14.031 1.8711l-0.31641 0.1875c-3.7617 2.1758-6.5391 5.5547-7.9609 9.6133-5.7422-4.4531-13.848-5.2734-20.52-1.4102-4.0586 2.3398-6.8672 6.0156-8.2461 10.148-5.7305-4.3438-13.75-5.1094-20.367-1.2891-3.4023 1.957-6.0156 4.8984-7.5781 8.4102l-18.156-31.457c-2.4609-4.2656-6.4297-7.3164-11.188-8.5859-4.7578-1.2695-9.7227-0.625-13.988 1.8359-8.8047 5.0859-11.824 16.375-6.75 25.18l31.117 53.891c-13.266 9.8555-17.348 28.359-8.8906 43.008l23.363 40.469c4.7891 8.2891 12.469 14.383 21.633 17.141l12.754 3.8516c7.5156 2.2656 13.805 7.2734 17.707 14.078l9.2969 16.219 10.086 17.598c1.9688 3.4336 5.1523 5.8828 8.9688 6.9141 1.2812 0.35156 2.582 0.51562 3.8711 0.51562 2.5586 0 5.0859-0.66797 7.3594-1.9922l72.898-42.086c3.5117-2.0234 6.0586-5.457 6.9883-9.4062 0.92969-3.9492 0.17578-8.1484-2.0547-11.527zm11.91 35.918c-0.46094 1.9258-1.6523 3.5312-3.3672 4.5273l-72.898 42.086c-1.6523 0.95312-3.5664 1.2031-5.4023 0.71094-1.8359-0.49219-3.3672-1.6719-4.3203-3.3242l-8.1914-14.297 51.309-29.617c1.8281-1.0625 2.4609-3.4023 1.3984-5.2266-1.0625-1.8281-3.4023-2.4609-5.2266-1.3984l-51.285 29.609-7.3711-12.875c-4.8789-8.5078-12.742-14.766-22.137-17.598l-12.754-3.8516c-7.2969-2.1992-13.41-7.043-17.215-13.641l-23.363-40.469c-6.3438-10.992-3.5117-24.805 6.1133-32.496l20.836 36.094c0.71094 1.2266 2 1.9141 3.3125 1.9141 0.64453 0 1.3125-0.16406 1.9141-0.51562 1.8281-1.0625 2.4609-3.4023 1.3984-5.2266l-55.812-96.664c-2.9766-5.1406-1.2031-11.746 3.9492-14.723 5.1406-2.9648 11.746-1.2031 14.723 3.9492l39.977 69.246c1.0625 1.8281 3.4023 2.4609 5.2266 1.3984 1.8281-1.0625 2.4609-3.4023 1.3984-5.2266l-14.352-24.859c-1.4453-2.4922-1.8281-5.3906-1.0703-8.1719 0.74219-2.7773 2.5273-5.1094 5.0195-6.5391 5.1406-2.9648 11.746-1.2031 14.723 3.9375l14.352 24.859c1.0625 1.8281 3.4023 2.4609 5.2266 1.3984 1.8281-1.0625 2.4609-3.4023 1.3984-5.2266l-11.035-19.117c-1.4336-2.4922-1.8164-5.3906-1.0703-8.1719 0.74219-2.7773 2.5273-5.1094 5.0195-6.5391 2.4922-1.4453 5.3906-1.8281 8.1719-1.0703 2.7773 0.74219 5.1094 2.5273 6.5391 5.0195l11.035 19.117c1.0625 1.8281 3.4023 2.4609 5.2266 1.3984 1.8281-1.0625 2.4609-3.4023 1.3984-5.2266l-7.7109-13.367c-1.3555-2.375-1.7188-5.1406-1.0078-7.7891 0.71094-2.668 2.4297-4.8984 4.8125-6.2773l0.31641-0.1875c2.5273-1.4531 5.4453-1.8477 8.2344-1.1055 2.7773 0.74219 5.1094 2.5156 6.5391 5.0078l36.816 63.766c5.0859 8.8047 8.1172 18.812 8.7617 28.961 0.82031 12.875 5.0195 25.375 12.141 36.125l17.293 26.141c1.1094 1.6367 1.4609 3.6055 1.0117 5.5312z"/>
  <path d="m200.99 292.97c7.2305-4.1797 15.664-5.2812 23.734-3.1289 8.0703 2.1641 14.809 7.3398 18.988 14.57 1.0625 1.8281 3.4023 2.4609 5.2266 1.3984 1.8281-1.0625 2.4609-3.4023 1.3984-5.2266-5.1953-9-13.594-15.445-23.637-18.133-10.039-2.6914-20.531-1.3125-29.543 3.8945-18.594 10.73-24.98 34.586-14.25 53.18 0.71094 1.2266 2 1.9141 3.3125 1.9141 0.64453 0 1.3125-0.16406 1.9141-0.51562 1.8281-1.0625 2.4609-3.4023 1.3984-5.2266-4.1797-7.2305-5.2812-15.664-3.1289-23.734 2.1719-8.0664 7.3438-14.816 14.586-18.992z"/>
  <path d="m527.88 31.195c-2.4609-0.57031-5 0.011719-6.9688 1.5742s-3.0938 3.9062-3.0938 6.4102l-0.078125 95.703c-10.695 2.2734-22.137 4.3438-34.211 6.1797v-108.24c0-5.7305-4.2773-10.621-9.9531-11.387-37.789-5.0742-80.523-7.7656-123.58-7.7656-43.062 0-85.781 2.6797-123.58 7.7656-5.6758 0.76562-9.9531 5.6562-9.9531 11.387v108.24c-12.074-1.8359-23.516-3.9062-34.211-6.1797l-0.078126-91.688c0-2.5156-1.125-4.8438-3.0938-6.4102-1.9688-1.5625-4.5078-2.1445-6.9688-1.5742-33.031 7.625-88.453 24.609-88.453 52.695v202.7c0 13.977 13.988 34.137 80.621 50.816 0.31641 0.078125 0.625 0.12109 0.92969 0.12109 1.7188 0 3.2695-1.1602 3.707-2.8984 0.51562-2.0547-0.73438-4.1328-2.7891-4.6484-46.812-11.742-74.789-27.961-74.789-43.406v-185.27c9.3086 10.227 26.984 19.59 52.422 27.629 10.184 3.2148 21.504 6.1797 33.754 8.8477 0.085938 0.023437 0.17578 0.042969 0.26172 0.054687 31.895 6.9336 70.055 11.922 110.96 14.383 2.0117 0.12109 3.5859 1.793 3.5859 3.8164v61.719 0.023437 0.011719 87.117c0 2.1094 1.7188 3.8281 3.8281 3.8281s3.8281-1.7188 3.8281-3.8281v-83.66c32.801-1.6094 67.277-1.6094 100.05 0v122.16c0 3.1484 1.3242 6.2031 3.6211 8.3672 2.1328 2 4.9766 3.1289 7.8867 3.1289 0.23047 0 0.46094-0.011718 0.69922-0.023437 56.516-3.457 107.77-11.746 144.32-23.328 39.113-12.391 59.785-27.945 59.785-44.953l0.003906-202.71v-4.0039c-0.011719-28.086-55.422-45.074-88.465-52.695zm-436.55 56.699c0-16.395 30.844-33.316 82.512-45.238 0.21875-0.042969 0.38281 0.03125 0.48047 0.10938 0.14063 0.10938 0.20703 0.25 0.20703 0.42578l0.066406 89.992c-51.055-11.711-83.266-28.172-83.266-45.289zm308.7 72.152v57.531c-32.789-1.5977-67.234-1.5859-100.05 0v-57.531c0-6.0586-4.7344-11.102-10.785-11.461-23.012-1.3906-44.855-3.5781-65.066-6.4102v-109.35c0-1.9141 1.4219-3.543 3.3125-3.7969 37.461-5.0312 79.844-7.6992 122.57-7.6992s85.094 2.6562 122.55 7.6992c1.8906 0.25 3.3125 1.8906 3.3125 3.7969v109.35c-20.211 2.8438-42.066 5.0312-65.066 6.4102-6.0352 0.37109-10.773 5.4023-10.773 11.461zm208.64 130.54c0 12.961-19.84 26.688-54.438 37.648-35.973 11.398-86.57 19.566-142.47 22.98-1.082 0.054687-2.0898-0.30469-2.875-1.0391-0.77734-0.73438-1.2031-1.7188-1.2031-2.7891v-187.34c0-2.0234 1.5742-3.6953 3.5859-3.8164 56.742-3.4141 108.24-11.68 144.98-23.285 25.441-8.0391 43.117-17.391 52.422-27.629zm0-202.69c0 17.117-32.211 33.578-83.266 45.293l0.066406-94.008c0-0.17578 0.066406-0.31641 0.20703-0.42578 0.097656-0.078125 0.26172-0.16406 0.48047-0.10938 51.668 11.93 82.512 28.852 82.512 45.246v4.0039z"/>
  <path d="m250.85 239.34c-2.1094 0-3.8281 1.7188-3.8281 3.8281 0 8.9805-2.2109 17.906-6.375 25.781-0.98438 1.8711-0.27344 4.1875 1.5977 5.1719 0.57031 0.30469 1.1797 0.44922 1.7812 0.44922 1.3672 0 2.7031-0.74219 3.3906-2.0352 4.7578-8.9805 7.2617-19.141 7.2617-29.367 0-2.1094-1.707-3.8281-3.8281-3.8281z"/>
  <path d="m191.82 177.57c-34.66 0-62.859 28.195-62.859 62.859 0 23.789 13.191 45.281 34.41 56.066 0.55859 0.28516 1.1484 0.41406 1.7266 0.41406 1.3984 0 2.7344-0.76562 3.4141-2.1016 0.96094-1.8828 0.20703-4.1875-1.6719-5.1523-18.648-9.4844-30.219-28.352-30.219-49.242 0-30.438 24.762-55.203 55.203-55.203 21.777 0 41.574 12.852 50.445 32.746 0.86328 1.9258 3.1289 2.8008 5.0547 1.9375 1.9375-0.86328 2.8008-3.1289 1.9375-5.0547-10.102-22.637-32.645-37.27-57.441-37.27z"/>
  <path d="m578.16 173.66c-29.969 13.66-78.434 24.203-136.47 29.695-2.1016 0.19531-3.6523 2.0664-3.4453 4.168 0.1875 1.9805 1.8594 3.4688 3.8047 3.4688 0.12109 0 0.24219 0 0.35938-0.023438 58.867-5.5664 108.2-16.352 138.92-30.352 1.9258-0.875 2.7656-3.1484 1.8906-5.0742-0.87109-1.9141-3.1328-2.7578-5.0586-1.8828z"/>
  <path d="m578.16 225.4c-29.969 13.66-78.434 24.203-136.47 29.695-2.1016 0.19531-3.6523 2.0664-3.4453 4.168 0.1875 1.9805 1.8594 3.4688 3.8047 3.4688 0.12109 0 0.24219 0 0.35938-0.023438 58.855-5.5664 108.2-16.352 138.92-30.352 1.9258-0.875 2.7773-3.1484 1.8906-5.0742-0.87109-1.9141-3.1445-2.7656-5.0586-1.8828z"/>
  <path d="m578.16 269.2c-19.359 8.8281-47.098 16.527-80.215 22.289-2.0781 0.35937-3.4766 2.3398-3.1172 4.4297 0.32812 1.8594 1.9375 3.1719 3.7617 3.1719 0.21875 0 0.4375-0.023438 0.65625-0.054688 33.754-5.875 62.137-13.77 82.086-22.859 1.9258-0.875 2.7773-3.1484 1.8906-5.0742-0.875-1.9219-3.1484-2.7773-5.0625-1.9023z"/>
 </g>
</svg>
